<?xml version="1.0" encoding="utf-8"?>
<!-- Generator: Adobe Illustrator 24.3.0, SVG Export Plug-In . SVG Version: 6.00 Build 0)  -->
<svg version="1.1" id="Hes" xmlns="http://www.w3.org/2000/svg" xmlns:xlink="http://www.w3.org/1999/xlink" x="0px" y="0px"
	 viewBox="0 0 208.6 110.8" xml:space="preserve" fill="#FFF">
<g>
	<path d="M87.7,50.1c-0.6,0-0.6,0-1.2,0L86.4,50c0-1.2,0.1-2.4,0.1-3.5c-0.3,0-0.5,0-1,0c-0.9,0-1.8,0-2.6,0c0,2,0,2.7,0.1,3.4
		l-0.1,0.1c-0.6,0-0.6,0-1.2,0L81.6,50c0-1,0.1-1.5,0.1-4.7c0-1.4,0-1.9-0.1-2.5l0.1-0.1c0.6,0,0.7,0,1.2,0l0.1,0.1
		c0,0.6,0,1.5,0,2.9c0.6,0,0.9,0,1.6,0c1,0,1.5,0,2,0c0-2,0-2.2-0.1-2.8l0.1-0.1c0.6,0,0.7,0,1.2,0l0.1,0.1c0,1,0,1.7,0,3.5
		C87.7,48.3,87.7,49.1,87.7,50.1L87.7,50.1z"/>
	<path d="M92.9,47.2v1.7c-0.1,0.1-0.5,0.5-1.2,0.5c-1,0-1-0.9-1-0.9C90.7,47.5,91.7,47.4,92.9,47.2L92.9,47.2z M94,46.9
		c0-0.4,0-1-0.1-1.3c-0.2-0.8-1-1.1-1.8-1.1c-0.6,0-1.3,0.1-1.9,0.3L90.2,45c0,0.2,0,0.3,0,0.8l0.1,0.1c0.5-0.2,1-0.4,1.7-0.4
		c0.5,0,0.8,0.2,0.9,0.4c0.1,0.2,0.1,0.4,0.1,0.6l-0.2,0c-2,0.2-3.2,0.7-3.2,2c0,1,0.8,1.7,1.9,1.7c0.8,0,1.3-0.4,1.5-0.5l0,0.4
		l0,0.1c0.5,0,0.6,0,1.1,0l0.1-0.1C94,49.4,94,49.2,94,48V46.9z"/>
	<path d="M100.9,44.7c0,0.8,0,1.5,0,2.4c0,1.3,0,2,0.1,2.5c0,0.1,0,0.3,0,0.4l0,0.1c-0.5,0-0.6,0-1.1,0l-0.1-0.1l0-0.4
		c-0.2,0.2-0.8,0.6-1.7,0.6c-0.4,0-0.9-0.1-1.2-0.4C96,49.3,96,48.4,96,47.6V47c0-1.5,0-1.6-0.1-2.2l0.1-0.1c0.5,0,0.6,0,1.1-0.1
		l0.1,0.1l0,2.3c0,0.3,0,0.5,0,1c0,0.4,0,1.4,1.1,1.4c0.6,0,1.1-0.3,1.4-0.5c0-0.6,0-1,0-1.6c0-1.4,0-1.7-0.1-2.4l0.1-0.1
		C100.2,44.7,100.3,44.7,100.9,44.7L100.9,44.7z"/>
	<path d="M105.4,49.3c0,0.3,0,0.4,0,0.7l-0.1,0.1c-0.2,0.1-0.4,0.1-0.8,0.1c-0.3,0-1,0-1.3-0.5c-0.2-0.3-0.2-0.5-0.2-1.8l0-2.3
		c-0.4,0-0.4,0-0.8,0l0-0.1c0-0.3,0-0.4,0-0.7l0.1-0.1c0.2,0,0.4,0,0.7,0c0-0.2,0-0.4,0-0.7c0-0.2,0-0.4,0-0.6l0.1-0.1
		c0.5-0.1,0.6-0.1,1.1-0.3l0.1,0.1c0,0.7,0,0.8,0,1.6c0.5,0,0.6,0,1.2,0l0.1,0.1c0,0.3,0,0.4,0,0.7l-0.1,0.1c-0.5,0-0.6,0-1.2,0
		l0,1.9c0,0.1,0,0.7,0,0.9c0,0.8,0.1,1,0.6,1C105.1,49.3,105.3,49.2,105.4,49.3L105.4,49.3z"/>
	<path d="M110.5,46.7c-1,0-1.4,0-2.8,0c0.1-1,0.8-1.4,1.4-1.4c0.5,0,1,0.2,1.2,0.8C110.5,46.4,110.5,46.6,110.5,46.7z M111.3,48.8
		c-0.1,0.1-0.4,0.3-0.8,0.5c-0.3,0.1-0.6,0.2-1,0.2c-0.3,0-1-0.1-1.4-0.6c-0.4-0.4-0.4-0.9-0.4-1.3c1.8,0,2.1,0,3.8,0l0.1-0.1
		c0-0.5,0-1.5-0.6-2.2c-0.3-0.4-0.9-0.7-1.8-0.7c-1.4,0-2.7,0.9-2.7,2.9c0,1.8,1.1,2.8,2.9,2.8c1,0,1.6-0.3,1.8-0.4l0.1-0.1
		C111.3,49.3,111.4,49.2,111.3,48.8L111.3,48.8z"/>
	<path d="M121.8,49.2c0,0.4,0,0.4-0.1,0.8l-0.1,0.1c-2.1,0-2.5,0-4.6,0L117,50c0-0.8,0.1-1.4,0.1-3.3c0-1.7,0-2.7-0.1-3.9l0.1-0.1
		c2.2,0,2.6,0,4.6,0l0.1,0.1c0,0.3-0.1,0.4-0.1,0.8l-0.1,0.1c-1.4,0-1.9,0-3.3-0.1c0,1,0,1.3,0,2.2c1.4,0,1.8,0,3.1,0l0.1,0.1
		c0,0.4,0,0.5-0.1,0.8l-0.1,0.1c-1.3,0-1.5,0-3,0c0,1.2,0,1.5,0,2.5C120,49.2,120.3,49.2,121.8,49.2L121.8,49.2z"/>
	<path d="M127.6,48.9c0,0.4-0.1,0.5-0.1,0.9l-0.1,0.1c-0.3,0.1-0.7,0.4-1.5,0.4c-1.7,0-2.7-1.1-2.7-2.7c0-1.6,1.1-2.9,2.8-2.9
		c0.7,0,1.2,0.2,1.5,0.3l0,0.1c0,0.4-0.1,0.5-0.1,0.8l-0.1,0c-0.4-0.2-0.8-0.4-1.2-0.4c-0.9,0-1.7,0.7-1.7,2c0,1.4,0.8,1.9,1.7,1.9
		C126.8,49.3,127.3,49,127.6,48.9L127.6,48.9z"/>
	<path d="M132.9,47.4c0,0.2,0,0.9-0.3,1.4c-0.3,0.6-0.8,0.7-1.3,0.7c-0.2,0-0.4,0-0.6-0.1c-0.9-0.4-0.9-1.5-0.9-1.9
		c0-0.4,0-1,0.3-1.5c0.4-0.6,1-0.6,1.2-0.6c0.6,0,1,0.3,1.2,0.6C132.9,46.4,132.9,47.1,132.9,47.4z M134.1,47.3c0-0.7-0.2-1.4-0.7-2
		c-0.5-0.5-1.2-0.7-2-0.7c-1.1,0-1.7,0.4-2,0.7c-0.7,0.7-0.8,1.7-0.8,2.1c0,0.3,0,1.4,0.8,2.1c0.3,0.3,1,0.7,2,0.7
		c0.8,0,1.4-0.2,1.9-0.6c0.4-0.3,0.6-0.7,0.7-1.3C134.1,48,134.1,47.7,134.1,47.3z"/>
	<path d="M137,50.1c-0.5,0-0.6,0-1.2,0l-0.1-0.1c0-0.7,0.1-1.7,0.1-3.6c0-1.4,0-3-0.1-4.3l0.1-0.1c0.5-0.1,0.6-0.1,1.2-0.2l0.1,0.1
		c-0.1,1.4-0.1,2.7-0.1,4.1C137,48.2,137,49,137,50.1L137,50.1z"/>
	<path d="M142.7,46.7c-1,0-1.4,0-2.8,0c0.1-1,0.8-1.4,1.4-1.4c0.5,0,1,0.2,1.2,0.8C142.7,46.4,142.7,46.6,142.7,46.7z M143.5,48.8
		c-0.1,0.1-0.4,0.3-0.8,0.5c-0.3,0.1-0.6,0.2-1,0.2c-0.3,0-1-0.1-1.4-0.6c-0.4-0.4-0.4-0.9-0.4-1.3c1.8,0,2.1,0,3.8,0l0.1-0.1
		c0-0.5,0-1.5-0.6-2.2c-0.3-0.4-0.9-0.7-1.8-0.7c-1.4,0-2.7,0.9-2.7,2.9c0,1.8,1.1,2.8,2.9,2.8c1,0,1.6-0.3,1.8-0.4l0.1-0.1
		C143.6,49.3,143.6,49.2,143.5,48.8L143.5,48.8z"/>
	<path d="M152.1,46c0.8,0.3,1.9,0.8,1.9,2.1c0,1.2-0.9,2.2-2.8,2.2c-1.2,0-1.9-0.3-2.2-0.5l0-0.1c0-0.4,0.1-0.6,0.1-1l0.1,0
		c0.3,0.2,0.9,0.6,1.9,0.6c1.1,0,1.6-0.5,1.6-1.2c0-0.7-0.6-1-1.4-1.3l-0.5-0.2c-0.8-0.3-1.8-0.8-1.8-2c0-0.4,0.1-0.8,0.3-1.1
		c0.5-0.7,1.4-0.9,2.3-0.9c0.9,0,1.4,0.2,2,0.3l0.1,0.1c0,0.4-0.1,0.5-0.1,0.9l-0.1,0c-0.5-0.2-1-0.5-1.8-0.5c-0.9,0-1.5,0.4-1.5,1
		c0,0.5,0.3,0.7,0.6,0.8c0.1,0.1,0.2,0.1,0.8,0.4L152.1,46z"/>
	<path d="M156.8,49.3c0-0.6,0-1.2,0-1.8c0-0.5,0-1.1,0-1.6c0.3-0.2,0.7-0.4,1.3-0.4c0.9,0,1.5,0.7,1.5,1.7c0,1.3-0.8,2.1-2.3,2.1
		C157.1,49.3,157,49.3,156.8,49.3z M156.8,44.7L156.8,44.7c-0.6,0-0.7,0.1-1.2,0.1l-0.1,0.1c0.1,1.2,0.1,1.9,0.1,3.5
		c0,0.6,0,1.2,0,1.8c0,1.1,0,1.7,0,2.3l0.1,0.1c0.4,0,0.8,0,1.2,0l0.1-0.1c-0.1-1-0.1-1.2-0.1-2.5c0.2,0,0.3,0,0.5,0
		c2.3,0,3.4-1.4,3.4-3c0-1.5-1-2.5-2.4-2.5c-0.9,0-1.4,0.4-1.6,0.6L156.8,44.7z"/>
	<path d="M166.2,46.7c-1,0-1.4,0-2.8,0c0.1-1,0.8-1.4,1.4-1.4c0.5,0,1,0.2,1.2,0.8C166.1,46.4,166.2,46.6,166.2,46.7z M166.1,42.4
		c-0.2,0-0.4,0-0.6,0s-0.4,0-0.6,0l-0.1,0.1c-0.2,0.7-0.6,1.3-0.7,1.6l0,0.1c0.4,0,0.5,0,0.8,0l0.1,0
		C165.5,43.3,165.6,43.2,166.1,42.4L166.1,42.4z M167,48.8c-0.1,0.1-0.4,0.3-0.8,0.5c-0.3,0.1-0.6,0.2-1,0.2c-0.3,0-1-0.1-1.4-0.6
		c-0.4-0.4-0.4-0.9-0.4-1.3c1.8,0,2.1,0,3.8,0l0.1-0.1c0-0.5,0-1.5-0.6-2.2c-0.3-0.4-0.9-0.7-1.8-0.7c-1.4,0-2.7,0.9-2.7,2.9
		c0,1.8,1.1,2.8,2.9,2.8c1,0,1.6-0.3,1.8-0.4l0.1-0.1C167,49.3,167,49.2,167,48.8L167,48.8z"/>
	<path d="M173.1,48.9c0,0.4-0.1,0.5-0.1,0.9l-0.1,0.1c-0.3,0.1-0.7,0.4-1.5,0.4c-1.7,0-2.7-1.1-2.7-2.7c0-1.6,1.1-2.9,2.8-2.9
		c0.7,0,1.2,0.2,1.5,0.3l0,0.1c0,0.4-0.1,0.5-0.1,0.8l-0.1,0c-0.4-0.2-0.8-0.4-1.2-0.4c-0.9,0-1.7,0.7-1.7,2c0,1.4,0.8,1.9,1.7,1.9
		C172.3,49.3,172.8,49,173.1,48.9L173.1,48.9z"/>
	<path d="M175.7,50.1c-0.6,0-0.7,0-1.2,0l-0.1-0.1c0-0.5,0.1-1,0.1-2.2c0-2,0-2.3-0.1-3l0.1-0.1c0.5-0.1,0.6-0.1,1.2-0.2l0.1,0.1
		c0,0.5-0.1,1.1-0.1,2.4C175.7,49.1,175.7,49.3,175.7,50.1L175.7,50.1z M175.7,43.2c-0.6,0-0.7,0-1.2,0.1l-0.1-0.1
		c0-0.1,0-0.3,0-0.4c0-0.2,0-0.4,0-0.6l0.1-0.1c0.6,0,0.7-0.1,1.2-0.1l0.1,0.1C175.8,42.6,175.8,42.7,175.7,43.2L175.7,43.2z"/>
	<path d="M180.8,47.2v1.7c-0.1,0.1-0.5,0.5-1.2,0.5c-1,0-1-0.9-1-0.9C178.5,47.5,179.6,47.4,180.8,47.2L180.8,47.2z M181.9,46.9
		c0-0.4,0-1-0.1-1.3c-0.2-0.8-1-1.1-1.8-1.1c-0.6,0-1.3,0.1-1.9,0.3L178,45c0,0.2,0,0.3,0,0.8l0.1,0.1c0.5-0.2,1-0.4,1.7-0.4
		c0.5,0,0.8,0.2,0.9,0.4c0.1,0.2,0.1,0.4,0.1,0.6l-0.2,0c-2,0.2-3.2,0.7-3.2,2c0,1,0.8,1.7,1.9,1.7c0.8,0,1.3-0.4,1.5-0.5l0,0.4
		l0,0.1c0.5,0,0.6,0,1.1,0L182,50c-0.1-0.7-0.1-0.8-0.1-2.1V46.9z"/>
	<path d="M185.1,50.1c-0.5,0-0.6,0-1.2,0l-0.1-0.1c0-0.7,0.1-1.7,0.1-3.6c0-1.4,0-3-0.1-4.3l0.1-0.1c0.5-0.1,0.6-0.1,1.2-0.2
		l0.1,0.1c-0.1,1.4-0.1,2.7-0.1,4.1C185.1,48.2,185.1,49,185.1,50.1L185.1,50.1z"/>
	<path d="M188.4,50.1c-0.6,0-0.7,0-1.2,0l-0.1-0.1c0-0.5,0.1-1,0.1-2.2c0-2,0-2.3-0.1-3l0.1-0.1c0.5-0.1,0.6-0.1,1.2-0.2l0.1,0.1
		c0,0.5-0.1,1.1-0.1,2.4C188.4,49.1,188.4,49.3,188.4,50.1L188.4,50.1z M188.4,43.2c-0.6,0-0.7,0-1.2,0.1l-0.1-0.1
		c0-0.1,0-0.3,0-0.4c0-0.2,0-0.4,0-0.6l0.1-0.1c0.6,0,0.7-0.1,1.2-0.1l0.1,0.1C188.4,42.6,188.4,42.7,188.4,43.2L188.4,43.2z"/>
	<path d="M192.7,46.9c0.4,0.1,1.4,0.5,1.4,1.5c0,0.4-0.2,0.9-0.6,1.2c-0.6,0.5-1.4,0.5-1.8,0.5c-0.6,0-1.1-0.1-1.5-0.3
		c-0.1,0-0.1,0-0.2-0.1l-0.1-0.1c0-0.4,0-0.5,0.1-0.9l0.1,0c0.2,0.1,0.7,0.5,1.5,0.5c0.9,0,1.2-0.5,1.2-0.8c0-0.5-0.5-0.6-1.1-0.8
		l-0.3-0.1c-0.5-0.1-1.4-0.4-1.4-1.5c0-1.1,1-1.6,2.2-1.6c0.8,0,1.4,0.2,1.6,0.3l0.1,0.1c0,0.4-0.1,0.4-0.1,0.8l-0.1,0
		c-0.3-0.2-0.7-0.4-1.4-0.4c-0.2,0-0.3,0-0.5,0.1c-0.3,0.1-0.6,0.3-0.6,0.6c0,0.4,0.4,0.6,1.1,0.8L192.7,46.9z"/>
	<path d="M199.3,46.7c-1,0-1.4,0-2.8,0c0.1-1,0.8-1.4,1.4-1.4c0.5,0,1,0.2,1.2,0.8C199.3,46.4,199.3,46.6,199.3,46.7z M199.3,42.4
		c-0.2,0-0.4,0-0.6,0c-0.2,0-0.4,0-0.6,0l-0.1,0.1c-0.2,0.7-0.6,1.3-0.7,1.6l0,0.1c0.4,0,0.5,0,0.8,0l0.1,0
		C198.7,43.3,198.8,43.2,199.3,42.4L199.3,42.4z M200.1,48.8c-0.1,0.1-0.4,0.3-0.8,0.5c-0.3,0.1-0.6,0.2-1,0.2c-0.3,0-1-0.1-1.4-0.6
		c-0.4-0.4-0.4-0.9-0.4-1.3c1.8,0,2.1,0,3.8,0l0.1-0.1c0-0.5,0-1.5-0.6-2.2c-0.3-0.4-0.9-0.7-1.8-0.7c-1.4,0-2.7,0.9-2.7,2.9
		c0,1.8,1.1,2.8,2.9,2.8c1,0,1.6-0.3,1.8-0.4l0.1-0.1C200.2,49.3,200.2,49.2,200.1,48.8L200.1,48.8z"/>
	<path d="M205.8,46.7c-1,0-1.4,0-2.8,0c0.1-1,0.8-1.4,1.4-1.4c0.5,0,1,0.2,1.2,0.8C205.7,46.4,205.8,46.6,205.8,46.7z M206.6,48.8
		c-0.1,0.1-0.4,0.3-0.8,0.5c-0.3,0.1-0.6,0.2-1,0.2c-0.3,0-1-0.1-1.4-0.6c-0.4-0.4-0.4-0.9-0.4-1.3c1.8,0,2.1,0,3.8,0l0.1-0.1
		c0-0.5,0-1.5-0.6-2.2c-0.3-0.4-0.9-0.7-1.8-0.7c-1.4,0-2.7,0.9-2.7,2.9c0,1.8,1.1,2.8,2.9,2.8c1,0,1.6-0.3,1.8-0.4l0.1-0.1
		C206.6,49.3,206.6,49.2,206.6,48.8L206.6,48.8z"/>
	<path d="M96.8,61.2c-0.2,0.1-0.6,0.5-1.2,0.5c-0.6,0-0.9-0.2-1.1-0.5c-0.2-0.3-0.4-0.7-0.4-1.3c0-0.9,0.4-1.4,0.6-1.6
		c0.5-0.5,1.2-0.5,1.6-0.5c0.2,0,0.4,0,0.5,0C96.8,59.5,96.8,59.8,96.8,61.2z M96.7,54.5c0.1,0.6,0.1,1.2,0.1,2.5
		c-0.3,0-0.4,0-0.6,0c-0.6,0-1.6,0-2.4,0.7c-0.5,0.4-1,1.1-1,2.2c0,1.6,1,2.7,2.5,2.7c0.8,0,1.2-0.3,1.5-0.5l0,0.4l0.1,0.1
		c0.5,0,0.6,0,1.1,0l0.1-0.1c0-0.7-0.1-1.5-0.1-3.1c0-1,0-3.6,0.1-5l-0.1-0.1C97.4,54.3,97.3,54.3,96.7,54.5L96.7,54.5z"/>
	<path d="M103.6,59.1c-1,0-1.4,0-2.8,0c0.1-1,0.8-1.4,1.4-1.4c0.5,0,1,0.2,1.2,0.8C103.6,58.7,103.6,58.9,103.6,59.1z M104.5,61.1
		c-0.1,0.1-0.4,0.3-0.8,0.5c-0.3,0.1-0.6,0.2-1,0.2c-0.3,0-1-0.1-1.4-0.6c-0.4-0.4-0.4-0.9-0.4-1.3c1.8,0,2.1,0,3.8,0l0.1-0.1
		c0-0.5,0-1.5-0.6-2.2c-0.3-0.4-0.9-0.7-1.8-0.7c-1.4,0-2.7,0.9-2.7,2.9c0,1.8,1.1,2.8,2.9,2.8c1,0,1.6-0.3,1.8-0.4l0.1-0.1
		C104.5,61.7,104.5,61.6,104.5,61.1L104.5,61.1z"/>
	<path d="M113,58.3c0.8,0.3,1.9,0.8,1.9,2.1c0,1.2-0.9,2.2-2.8,2.2c-1.2,0-1.9-0.3-2.2-0.5l0-0.1c0-0.4,0.1-0.6,0.1-0.9l0.1,0
		c0.3,0.2,0.9,0.6,1.9,0.6c1.1,0,1.6-0.5,1.6-1.2c0-0.7-0.6-1-1.4-1.3l-0.5-0.2c-0.8-0.3-1.8-0.8-1.8-2c0-0.4,0.1-0.8,0.3-1.1
		c0.5-0.7,1.4-0.9,2.3-0.9c0.9,0,1.4,0.2,2,0.3l0.1,0.1c0,0.4-0.1,0.5-0.1,0.9l-0.1,0c-0.5-0.2-1-0.5-1.8-0.5c-0.9,0-1.5,0.4-1.5,1
		c0,0.5,0.3,0.7,0.6,0.8c0.1,0.1,0.2,0.1,0.8,0.4L113,58.3z"/>
	<path d="M121.4,57.1c0,0.8,0,1.5,0,2.4c0,1.3,0,2,0.1,2.5c0,0.1,0,0.3,0,0.4l0,0.1c-0.5,0-0.6,0-1.1,0l-0.1-0.1l0-0.4
		c-0.2,0.2-0.8,0.6-1.7,0.6c-0.4,0-0.9-0.1-1.3-0.4c-0.7-0.5-0.7-1.4-0.7-2.2v-0.6c0-1.5,0-1.6-0.1-2.2l0.1-0.1c0.5,0,0.6,0,1.1-0.1
		l0.1,0.1l0,2.3c0,0.3,0,0.5,0,1c0,0.4,0,1.4,1.1,1.4c0.6,0,1.1-0.3,1.4-0.5c0-0.6,0-1,0-1.6c0-1.4,0-1.7-0.1-2.4l0.1-0.1
		C120.7,57,120.8,57,121.4,57.1L121.4,57.1z"/>
	<path d="M124.7,62.4c-0.6,0-0.7,0-1.2,0l-0.1-0.1c0-0.5,0.1-1,0.1-2.2c0-2,0-2.3-0.1-3l0.1-0.1c0.5-0.1,0.6-0.1,1.2-0.2l0.1,0.1
		c0,0.5-0.1,1.1-0.1,2.4C124.6,61.4,124.7,61.7,124.7,62.4L124.7,62.4z M124.7,55.5c-0.6,0-0.7,0-1.2,0.1l-0.1-0.1
		c0-0.1,0-0.3,0-0.4c0-0.2,0-0.4,0-0.6l0.1-0.1c0.6,0,0.7-0.1,1.2-0.1l0.1,0.1C124.7,54.9,124.7,55,124.7,55.5L124.7,55.5z"/>
	<path d="M129,59.3c0.4,0.1,1.4,0.5,1.4,1.5c0,0.4-0.2,0.9-0.6,1.2c-0.6,0.5-1.4,0.5-1.8,0.5c-0.6,0-1.1-0.1-1.5-0.3
		c-0.1,0-0.1,0-0.2-0.1l-0.1-0.1c0-0.4,0-0.5,0.1-0.9l0.1,0c0.2,0.1,0.7,0.5,1.5,0.5c0.9,0,1.2-0.5,1.2-0.8c0-0.5-0.5-0.6-1.1-0.8
		l-0.4-0.1c-0.4-0.1-1.4-0.4-1.4-1.5c0-1.1,1-1.6,2.2-1.6c0.8,0,1.4,0.2,1.6,0.3l0.1,0.1c0,0.4-0.1,0.4-0.1,0.8l-0.1,0
		c-0.3-0.2-0.7-0.4-1.4-0.4c-0.2,0-0.3,0-0.5,0.1c-0.3,0.1-0.6,0.3-0.6,0.6c0,0.4,0.4,0.6,1.1,0.8L129,59.3z"/>
	<path d="M134.3,59.3c0.4,0.1,1.4,0.5,1.4,1.5c0,0.4-0.2,0.9-0.6,1.2c-0.6,0.5-1.4,0.5-1.8,0.5c-0.6,0-1.1-0.1-1.5-0.3
		c-0.1,0-0.1,0-0.2-0.1l-0.1-0.1c0-0.4,0-0.5,0.1-0.9l0.1,0c0.2,0.1,0.7,0.5,1.5,0.5c0.9,0,1.2-0.5,1.2-0.8c0-0.5-0.5-0.6-1.1-0.8
		L133,60c-0.5-0.1-1.4-0.4-1.4-1.5c0-1.1,1-1.6,2.2-1.6c0.8,0,1.4,0.2,1.6,0.3l0.1,0.1c0,0.4-0.1,0.4-0.1,0.8l-0.1,0
		c-0.3-0.2-0.7-0.4-1.4-0.4c-0.2,0-0.3,0-0.5,0.1c-0.3,0.1-0.6,0.3-0.6,0.6c0,0.4,0.5,0.6,1.1,0.8L134.3,59.3z"/>
	<path d="M140.9,59.1c-1,0-1.4,0-2.8,0c0.1-1,0.8-1.4,1.4-1.4c0.5,0,1,0.2,1.2,0.8C140.9,58.7,140.9,58.9,140.9,59.1z M141.7,61.1
		c-0.1,0.1-0.4,0.3-0.8,0.5c-0.3,0.1-0.6,0.2-1,0.2c-0.3,0-1-0.1-1.4-0.6c-0.4-0.4-0.4-0.9-0.4-1.3c1.8,0,2.1,0,3.8,0l0.1-0.1
		c0-0.5,0-1.5-0.6-2.2c-0.3-0.4-0.9-0.7-1.8-0.7c-1.4,0-2.7,0.9-2.7,2.9c0,1.8,1.1,2.8,2.9,2.8c1,0,1.6-0.3,1.8-0.4l0.1-0.1
		C141.7,61.7,141.7,61.6,141.7,61.1L141.7,61.1z"/>
	<path d="M151.3,59.7c0,0.2,0,0.9-0.3,1.4c-0.3,0.6-0.8,0.7-1.2,0.7c-0.2,0-0.4,0-0.6-0.1c-0.9-0.4-0.9-1.5-0.9-1.9
		c0-0.4,0-1,0.3-1.5c0.4-0.6,1-0.6,1.2-0.6c0.6,0,1,0.3,1.2,0.6C151.3,58.7,151.3,59.4,151.3,59.7z M152.5,59.7c0-0.7-0.2-1.4-0.7-2
		c-0.5-0.5-1.2-0.7-2-0.7c-1.1,0-1.7,0.4-2,0.7c-0.7,0.7-0.8,1.7-0.8,2.1c0,0.3,0,1.4,0.8,2.1c0.4,0.3,1,0.7,2,0.7
		c0.8,0,1.4-0.2,1.9-0.6c0.4-0.3,0.6-0.7,0.7-1.2C152.5,60.3,152.5,60,152.5,59.7z"/>
	<path d="M158.4,61.2c0,0.4-0.1,0.5-0.1,0.9l-0.1,0.1c-0.3,0.1-0.7,0.4-1.5,0.4c-1.7,0-2.7-1.1-2.7-2.7c0-1.6,1.1-2.9,2.8-2.9
		c0.7,0,1.2,0.2,1.5,0.3l0,0.1c0,0.4-0.1,0.5-0.1,0.8l-0.1,0c-0.4-0.2-0.8-0.4-1.2-0.4c-0.9,0-1.7,0.7-1.7,2c0,1.4,0.8,1.9,1.7,1.9
		C157.6,61.7,158.1,61.3,158.4,61.2L158.4,61.2z"/>
	<path d="M163.9,61.2c0,0.4-0.1,0.5-0.1,0.9l-0.1,0.1c-0.3,0.1-0.7,0.4-1.5,0.4c-1.7,0-2.7-1.1-2.7-2.7c0-1.6,1.1-2.9,2.8-2.9
		c0.7,0,1.2,0.2,1.5,0.3l0,0.1c0,0.4-0.1,0.5-0.1,0.8l-0.1,0c-0.4-0.2-0.8-0.4-1.2-0.4c-0.9,0-1.7,0.7-1.7,2c0,1.4,0.8,1.9,1.7,1.9
		C163.2,61.7,163.6,61.3,163.9,61.2L163.9,61.2z"/>
	<path d="M166.5,62.4c-0.6,0-0.7,0-1.2,0l-0.1-0.1c0-0.5,0.1-1,0.1-2.2c0-2,0-2.3-0.1-3l0.1-0.1c0.5-0.1,0.6-0.1,1.2-0.2l0.1,0.1
		c0,0.5-0.1,1.1-0.1,2.4C166.5,61.4,166.5,61.7,166.5,62.4L166.5,62.4z M166.5,55.5c-0.6,0-0.7,0-1.2,0.1l-0.1-0.1
		c0-0.1,0-0.3,0-0.4c0-0.2,0-0.4,0-0.6l0.1-0.1c0.6,0,0.7-0.1,1.2-0.1l0.1,0.1C166.6,54.9,166.6,55,166.5,55.5L166.5,55.5z"/>
	<path d="M172.2,61.2c-0.2,0.1-0.6,0.5-1.2,0.5c-0.6,0-0.9-0.2-1.1-0.5c-0.2-0.3-0.4-0.7-0.4-1.3c0-0.9,0.4-1.4,0.6-1.6
		c0.5-0.5,1.2-0.5,1.6-0.5c0.2,0,0.4,0,0.5,0C172.2,59.5,172.2,59.8,172.2,61.2z M172.2,54.5c0.1,0.6,0.1,1.2,0.1,2.5
		c-0.3,0-0.4,0-0.6,0c-0.6,0-1.6,0-2.4,0.7c-0.5,0.4-1,1.1-1,2.2c0,1.6,1,2.7,2.5,2.7c0.8,0,1.2-0.3,1.5-0.5l0,0.4l0.1,0.1
		c0.5,0,0.6,0,1.1,0l0.1-0.1c0-0.7-0.1-1.5-0.1-3.1c0-1,0-3.6,0.1-5l-0.1-0.1C172.9,54.3,172.8,54.3,172.2,54.5L172.2,54.5z"/>
	<path d="M179.1,59.1c-1,0-1.4,0-2.8,0c0.1-1,0.8-1.4,1.4-1.4c0.5,0,1,0.2,1.2,0.8C179,58.7,179.1,58.9,179.1,59.1z M179.9,61.1
		c-0.1,0.1-0.4,0.3-0.8,0.5c-0.3,0.1-0.6,0.2-1,0.2c-0.3,0-1-0.1-1.4-0.6c-0.4-0.4-0.4-0.9-0.4-1.3c1.8,0,2.1,0,3.8,0l0.1-0.1
		c0-0.5,0-1.5-0.6-2.2c-0.3-0.4-0.9-0.7-1.8-0.7c-1.4,0-2.7,0.9-2.7,2.9c0,1.8,1.1,2.8,2.9,2.8c1,0,1.6-0.3,1.8-0.4l0.1-0.1
		C179.9,61.7,179.9,61.6,179.9,61.1L179.9,61.1z"/>
	<path d="M186.7,62.4c-0.5,0-0.6,0-1.1,0l-0.1-0.1c0-0.1,0-0.2,0-0.3c0-0.5,0-1,0-1.5c0-1.6,0-1.7-0.1-1.9c-0.2-0.8-0.8-0.8-1-0.8
		c-0.7,0-1.2,0.4-1.5,0.6c0,1.8,0,2.7,0.1,3.9l-0.1,0.1c-0.5,0-0.6,0-1.2,0l-0.1-0.1c0-0.6,0-1.1,0-1.9c0-1.7-0.1-2.5-0.1-3.2
		l0.1-0.1c0.5-0.1,0.6-0.1,1.2-0.2l0.1,0.1l0,0.5c0.3-0.2,1-0.6,1.9-0.6c0.3,0,0.6,0,0.9,0.2c0.3,0.2,0.5,0.4,0.6,0.7
		c0.1,0.3,0.2,0.6,0.2,1.3v1.2C186.7,61.5,186.8,62,186.7,62.4L186.7,62.4z"/>
	<path d="M191.3,61.6c0,0.3,0,0.4,0,0.7l-0.1,0.1c-0.2,0.1-0.4,0.1-0.8,0.1c-0.3,0-1,0-1.3-0.5c-0.2-0.3-0.2-0.5-0.2-1.8l0-2.3
		c-0.4,0-0.4,0-0.8,0l0-0.1c0-0.3,0-0.4,0-0.7l0.1-0.1c0.2,0,0.4,0,0.7,0c0-0.2,0-0.4,0-0.7c0-0.2,0-0.4,0-0.6l0.1-0.1
		c0.5-0.1,0.6-0.1,1.1-0.3l0.1,0.1c0,0.7,0,0.8,0,1.6c0.5,0,0.6,0,1.2,0l0.1,0.1c0,0.3,0,0.4,0,0.7l-0.1,0.1c-0.5,0-0.6,0-1.2,0
		l0,1.9c0,0.1,0,0.7,0,0.9c0,0.8,0.1,1,0.6,1C190.9,61.6,191.1,61.6,191.3,61.6L191.3,61.6z"/>
	<path d="M195.7,59.5v1.7c-0.1,0.1-0.5,0.5-1.2,0.5c-1,0-1-0.9-1-0.9C193.5,59.8,194.5,59.7,195.7,59.5L195.7,59.5z M196.9,59.3
		c0-0.4,0-1-0.1-1.3c-0.2-0.8-1-1.1-1.8-1.1c-0.6,0-1.3,0.1-1.9,0.3l-0.1,0.1c0,0.2,0,0.3,0,0.8l0.1,0.1c0.5-0.2,1-0.4,1.7-0.4
		c0.5,0,0.8,0.2,0.9,0.4c0.1,0.2,0.1,0.4,0.1,0.6l-0.2,0c-2,0.2-3.2,0.7-3.2,2c0,1,0.8,1.7,1.9,1.7c0.8,0,1.3-0.4,1.5-0.5l0,0.4
		l0,0.1c0.5,0,0.6,0,1.1,0l0.1-0.1c-0.1-0.7-0.1-0.8-0.1-2.1V59.3z"/>
	<path d="M200.1,62.4c-0.5,0-0.6,0-1.2,0l-0.1-0.1c0-0.7,0.1-1.7,0.1-3.6c0-1.4,0-3-0.1-4.3l0.1-0.1c0.5-0.1,0.6-0.1,1.2-0.2
		l0.1,0.1c-0.1,1.4-0.1,2.7-0.1,4.1C200,60.6,200.1,61.4,200.1,62.4L200.1,62.4z"/>
	<path d="M205.8,59.1c-1,0-1.4,0-2.8,0c0.1-1,0.8-1.4,1.4-1.4c0.5,0,1,0.2,1.2,0.8C205.7,58.7,205.8,58.9,205.8,59.1z M206.6,61.1
		c-0.1,0.1-0.4,0.3-0.8,0.5c-0.3,0.1-0.6,0.2-1,0.2c-0.3,0-1-0.1-1.4-0.6c-0.4-0.4-0.4-0.9-0.4-1.3c1.8,0,2.1,0,3.8,0l0.1-0.1
		c0-0.5,0-1.5-0.6-2.2c-0.3-0.4-0.9-0.7-1.8-0.7c-1.4,0-2.7,0.9-2.7,2.9c0,1.8,1.1,2.8,2.9,2.8c1,0,1.6-0.3,1.8-0.4l0.1-0.1
		C206.6,61.7,206.6,61.6,206.6,61.1L206.6,61.1z"/>
</g>
<g>
	<path d="M56.9,77.3c-1.1,0-1.3,0-2.6,0c0,0.4,0,2,0.1,3.2l-0.1,0.1c-0.6,0-0.7,0-1.3,0L53,80.5c0-0.8,0.1-1.4,0.1-4.4
		c0-1.5,0-2.1-0.1-2.7l0.1-0.1c0.8,0,3.7,0,4.4,0l0.1,0.1c0,0.4,0,0.4-0.1,0.8l-0.1,0.1c-1.4,0-1.7,0-3.1,0c0,0.4,0,1.5,0,2.1v0.2
		c1.2,0,1.6,0,2.7-0.1l0.1,0.1C57,76.9,57,76.9,56.9,77.3L56.9,77.3z"/>
	<path d="M61.5,77.6v1.7c-0.1,0.1-0.5,0.5-1.2,0.5c-1,0-1-0.9-1-0.9C59.3,77.9,60.3,77.8,61.5,77.6L61.5,77.6z M62.7,77.4
		c0-0.4,0-1-0.1-1.3c-0.2-0.8-1-1.1-1.8-1.1c-0.6,0-1.3,0.1-1.9,0.3l-0.1,0.1c0,0.2,0,0.3,0,0.8l0.1,0.1c0.5-0.2,1-0.4,1.7-0.4
		c0.5,0,0.8,0.2,0.9,0.4c0.1,0.2,0.1,0.4,0.1,0.6l-0.2,0c-2,0.2-3.2,0.7-3.2,2c0,1,0.8,1.7,1.9,1.7c0.8,0,1.3-0.4,1.5-0.5l0,0.4
		l0,0.1c0.5,0,0.6,0,1.1,0l0.1-0.1c-0.1-0.7-0.1-0.8-0.1-2.1V77.4z"/>
	<path d="M68.8,79.3c0,0.4-0.1,0.5-0.1,0.9l-0.1,0.1c-0.3,0.1-0.7,0.4-1.5,0.4c-1.7,0-2.7-1.1-2.7-2.7c0-1.6,1.1-2.9,2.8-2.9
		c0.7,0,1.2,0.2,1.5,0.3l0,0.1c0,0.4-0.1,0.5-0.1,0.8l-0.1,0c-0.4-0.2-0.8-0.4-1.2-0.4c-0.9,0-1.7,0.7-1.7,2c0,1.4,0.8,1.9,1.7,1.9
		C68,79.8,68.5,79.4,68.8,79.3L68.8,79.3z"/>
	<path d="M75.1,80.5c-0.5,0-0.6,0-1.1,0l-0.1-0.1l0-0.3c0-0.5,0-1.1,0-1.6l0-1.1c0-0.2,0-0.5-0.1-0.7c-0.1-0.5-0.4-0.8-1-0.8
		c-0.6,0-1.1,0.3-1.5,0.6c0,1.8,0,2.7,0.1,3.9l-0.1,0.1c-0.5,0-0.6,0-1.2,0l-0.1-0.1c0-0.7,0.1-1.7,0.1-3.6c0-0.9,0-1.7,0-2.6
		c0-0.9-0.1-1.2-0.1-1.7l0.1-0.1c0.5-0.1,0.7-0.1,1.2-0.2l0.1,0.1c-0.1,1.1-0.1,2.2-0.1,3.3c0.4-0.2,1-0.6,2-0.6
		c0.3,0,0.5,0,0.7,0.1c0.5,0.2,0.8,0.6,0.9,1c0.1,0.2,0.1,0.3,0.1,1v1.2l0,0.5C75.1,79.7,75.1,79.9,75.1,80.5L75.1,80.5z"/>
	<path d="M81.9,80.5c-0.5,0-0.6,0-1.1,0l-0.1-0.1l0-0.3c0-0.5,0-1.1,0-1.6l0-1.1c0-0.2,0-0.5-0.1-0.7c-0.1-0.5-0.4-0.8-1-0.8
		c-0.6,0-1.1,0.3-1.5,0.6c0,1.8,0,2.7,0.1,3.9l-0.1,0.1c-0.5,0-0.6,0-1.2,0l-0.1-0.1c0-0.7,0.1-1.7,0.1-3.6c0-0.9,0-1.7,0-2.6
		c0-0.9-0.1-1.2-0.1-1.7l0.1-0.1c0.5-0.1,0.7-0.1,1.2-0.2l0.1,0.1c-0.1,1.1-0.1,2.2-0.1,3.3c0.4-0.2,1-0.6,2-0.6
		c0.3,0,0.5,0,0.7,0.1c0.5,0.2,0.8,0.6,0.9,1c0.1,0.2,0.1,0.3,0.1,1v1.2l0,0.5C82,79.7,82,79.9,81.9,80.5L81.9,80.5z"/>
	<path d="M87.9,77.8c0,0.2,0,0.9-0.3,1.4c-0.3,0.6-0.8,0.7-1.2,0.7c-0.2,0-0.5,0-0.6-0.1c-0.9-0.4-0.9-1.5-0.9-1.9
		c0-0.4,0-1,0.3-1.5c0.4-0.6,1-0.6,1.2-0.6c0.6,0,1,0.3,1.2,0.6C87.9,76.8,87.9,77.5,87.9,77.8z M89.1,77.7c0-0.7-0.2-1.4-0.7-2
		c-0.5-0.5-1.2-0.7-2-0.7c-1.1,0-1.7,0.4-2,0.7c-0.7,0.7-0.8,1.7-0.8,2.1c0,0.3,0,1.4,0.8,2.1c0.4,0.3,1,0.7,2,0.7
		c0.8,0,1.4-0.2,1.9-0.6c0.4-0.3,0.6-0.7,0.7-1.2C89.1,78.4,89.1,78.1,89.1,77.7z"/>
	<path d="M95,79.3c0,0.4-0.1,0.5-0.1,0.9l-0.1,0.1c-0.3,0.1-0.7,0.4-1.5,0.4c-1.7,0-2.7-1.1-2.7-2.7c0-1.6,1.1-2.9,2.8-2.9
		c0.7,0,1.2,0.2,1.5,0.3l0,0.1c0,0.4-0.1,0.5-0.1,0.8l-0.1,0c-0.4-0.2-0.8-0.4-1.2-0.4c-0.9,0-1.7,0.7-1.7,2c0,1.4,0.8,1.9,1.7,1.9
		C94.2,79.8,94.7,79.4,95,79.3L95,79.3z"/>
	<path d="M101.2,80.5c-0.5,0-0.6,0-1.1,0l-0.1-0.1l0-0.3c0-0.5,0-1.1,0-1.6l0-1.1c0-0.2,0-0.5-0.1-0.7c-0.1-0.5-0.4-0.8-1-0.8
		c-0.6,0-1.1,0.3-1.5,0.6c0,1.8,0,2.7,0.1,3.9l-0.1,0.1c-0.5,0-0.6,0-1.2,0l-0.1-0.1c0-0.7,0.1-1.7,0.1-3.6c0-0.9,0-1.7,0-2.6
		c0-0.9-0.1-1.2-0.1-1.7l0.1-0.1c0.5-0.1,0.7-0.1,1.2-0.2l0.1,0.1c-0.1,1.1-0.1,2.2-0.1,3.3c0.4-0.2,1-0.6,2-0.6
		c0.3,0,0.5,0,0.7,0.1c0.5,0.2,0.8,0.6,0.9,1c0.1,0.2,0.1,0.3,0.1,1v1.2l0,0.5C101.3,79.7,101.3,79.9,101.2,80.5L101.2,80.5z"/>
	<path d="M105.6,77.4c0.4,0.1,1.4,0.5,1.4,1.5c0,0.4-0.2,0.9-0.6,1.2c-0.6,0.5-1.4,0.5-1.8,0.5c-0.6,0-1.1-0.1-1.5-0.3
		c-0.1,0-0.1,0-0.2-0.1l-0.1-0.1c0-0.4,0-0.5,0.1-0.9l0.1,0c0.2,0.1,0.7,0.5,1.5,0.5c0.9,0,1.2-0.5,1.2-0.8c0-0.5-0.5-0.6-1.1-0.8
		l-0.4-0.1c-0.5-0.1-1.4-0.4-1.4-1.5c0-1.1,1-1.6,2.2-1.6c0.8,0,1.4,0.2,1.6,0.3l0.1,0.1c0,0.4-0.1,0.4-0.1,0.8l-0.1,0
		c-0.3-0.2-0.7-0.4-1.4-0.4c-0.2,0-0.3,0-0.5,0.1c-0.3,0.1-0.6,0.3-0.6,0.6c0,0.4,0.4,0.6,1.1,0.8L105.6,77.4z"/>
	<path d="M112.7,79.3c0,0.4-0.1,0.5-0.1,0.9l-0.1,0.1c-0.3,0.1-0.7,0.4-1.5,0.4c-1.7,0-2.7-1.1-2.7-2.7c0-1.6,1.1-2.9,2.8-2.9
		c0.7,0,1.2,0.2,1.5,0.3l0,0.1c0,0.4-0.1,0.5-0.1,0.8l-0.1,0c-0.4-0.2-0.8-0.4-1.2-0.4c-0.9,0-1.7,0.7-1.7,2c0,1.4,0.8,1.9,1.7,1.9
		C111.9,79.8,112.4,79.4,112.7,79.3L112.7,79.3z"/>
	<path d="M118.9,80.5c-0.5,0-0.6,0-1.1,0l-0.1-0.1l0-0.3c0-0.5,0-1.1,0-1.6l0-1.1c0-0.2,0-0.5-0.1-0.7c-0.1-0.5-0.4-0.8-1-0.8
		c-0.6,0-1.1,0.3-1.5,0.6c0,1.8,0,2.7,0.1,3.9l-0.1,0.1c-0.5,0-0.6,0-1.2,0l-0.1-0.1c0-0.7,0.1-1.7,0.1-3.6c0-0.9,0-1.7,0-2.6
		c0-0.9-0.1-1.2-0.1-1.7l0.1-0.1c0.5-0.1,0.7-0.1,1.2-0.2l0.1,0.1c-0.1,1.1-0.1,2.2-0.1,3.3c0.4-0.2,1-0.6,2-0.6
		c0.3,0,0.5,0,0.7,0.1c0.5,0.2,0.8,0.6,0.9,1c0.1,0.2,0.1,0.3,0.1,1v1.2l0,0.5C118.9,79.7,118.9,79.9,118.9,80.5L118.9,80.5z"/>
	<path d="M125.8,75.2c0,0.8,0,1.5,0,2.4c0,1.3,0,2,0.1,2.5c0,0.1,0,0.3,0,0.4l0,0.1c-0.5,0-0.6,0-1.1,0l-0.1-0.1l0-0.4
		c-0.2,0.2-0.8,0.6-1.7,0.6c-0.4,0-0.9-0.1-1.3-0.4c-0.7-0.5-0.7-1.4-0.7-2.2v-0.6c0-1.5,0-1.6-0.1-2.2l0.1-0.1c0.5,0,0.6,0,1.1-0.1
		l0.1,0.1l0,2.3c0,0.3,0,0.5,0,1c0,0.4,0,1.4,1.1,1.4c0.6,0,1.1-0.3,1.4-0.5c0-0.6,0-1,0-1.6c0-1.4,0-1.7-0.1-2.4l0.1-0.1
		C125.1,75.1,125.2,75.1,125.8,75.2L125.8,75.2z"/>
	<path d="M129,80.5c-0.5,0-0.6,0-1.2,0l-0.1-0.1c0-0.7,0.1-1.7,0.1-3.6c0-1.4,0-3-0.1-4.3l0.1-0.1c0.5-0.1,0.6-0.1,1.2-0.2l0.1,0.1
		c-0.1,1.4-0.1,2.7-0.1,4.1C129,78.7,129,79.5,129,80.5L129,80.5z"/>
	<path d="M134.7,77.2c-1,0-1.4,0-2.8,0c0.1-1,0.8-1.4,1.4-1.4c0.5,0,1,0.2,1.2,0.8C134.7,76.8,134.7,77,134.7,77.2z M135.5,79.2
		c-0.1,0.1-0.4,0.3-0.8,0.5c-0.3,0.1-0.6,0.2-1,0.2c-0.3,0-1-0.1-1.4-0.6c-0.4-0.4-0.4-0.9-0.4-1.3c1.8,0,2.1,0,3.8,0l0.1-0.1
		c0-0.5,0-1.5-0.6-2.2c-0.3-0.4-0.9-0.7-1.8-0.7c-1.4,0-2.7,0.9-2.7,2.9c0,1.8,1.1,2.8,2.9,2.8c1,0,1.6-0.3,1.8-0.4l0.1-0.1
		C135.6,79.8,135.6,79.7,135.5,79.2L135.5,79.2z"/>
	<path d="M148.2,80.5c-0.7,0-0.9,0-1.6,0l-0.1-0.1c-0.2-1-0.2-1.3-0.4-2.1l-0.9-4.5l-0.9,4.2c-0.1,0.3-0.1,0.6-0.2,0.8
		c-0.1,0.4-0.3,1.2-0.3,1.4l-0.1,0.1c-0.8,0-0.8,0-1.6,0l-0.1-0.1c-0.2-0.9-1.1-4.8-1.7-7.2l0.1-0.1c0.6,0,0.7,0,1.2,0l0.1,0.1
		c0.1,0.4,0.1,0.7,0.2,1.2c0.1,0.5,0.2,0.9,0.3,1.4l0.8,3.9l0.9-4.6c0.2-0.8,0.2-0.9,0.4-1.9l0.1-0.1c0.8,0,1,0,1.7,0l0.1,0.1
		c0,0.1,0,0.2,0,0.3c0,0.3,0.3,1.6,0.4,1.9l0.9,4.4l0.9-4.1c0.4-2,0.4-2,0.5-2.4l0.1-0.1c0.5,0,0.6,0,1.1,0l0.1,0.1
		c-0.3,0.8-0.3,1.1-0.9,3.6c-0.3,1.1-0.6,2.2-0.8,3.4C148.3,80.3,148.3,80.4,148.2,80.5L148.2,80.5z"/>
	<path d="M154.7,77.2c-1,0-1.4,0-2.8,0c0.1-1,0.8-1.4,1.4-1.4c0.5,0,1,0.2,1.2,0.8C154.7,76.8,154.7,77,154.7,77.2z M155.5,79.2
		c-0.1,0.1-0.4,0.3-0.8,0.5c-0.3,0.1-0.6,0.2-1,0.2c-0.3,0-1-0.1-1.4-0.6c-0.4-0.4-0.4-0.9-0.4-1.3c1.8,0,2.1,0,3.8,0l0.1-0.1
		c0-0.5,0-1.5-0.6-2.2c-0.3-0.4-0.9-0.7-1.8-0.7c-1.4,0-2.7,0.9-2.7,2.9c0,1.8,1.1,2.8,2.9,2.8c1,0,1.6-0.3,1.8-0.4l0.1-0.1
		C155.6,79.8,155.6,79.7,155.5,79.2L155.5,79.2z"/>
	<path d="M159.8,77.4c0.4,0.1,1.4,0.5,1.4,1.5c0,0.4-0.2,0.9-0.6,1.2c-0.6,0.5-1.4,0.5-1.8,0.5c-0.6,0-1.1-0.1-1.5-0.3
		c-0.1,0-0.1,0-0.2-0.1l-0.1-0.1c0-0.4,0-0.5,0.1-0.9l0.1,0c0.2,0.1,0.7,0.5,1.5,0.5c0.9,0,1.2-0.5,1.2-0.8c0-0.5-0.5-0.6-1.1-0.8
		l-0.3-0.1c-0.5-0.1-1.4-0.4-1.4-1.5c0-1.1,1-1.6,2.2-1.6c0.8,0,1.4,0.2,1.6,0.3l0.1,0.1c0,0.4-0.1,0.4-0.1,0.8l-0.1,0
		c-0.3-0.2-0.7-0.4-1.4-0.4c-0.2,0-0.3,0-0.5,0.1c-0.3,0.1-0.6,0.3-0.6,0.6c0,0.4,0.4,0.6,1.1,0.8L159.8,77.4z"/>
	<path d="M165.3,79.7c0,0.3,0,0.4,0,0.7l-0.1,0.1c-0.2,0.1-0.4,0.1-0.8,0.1c-0.3,0-1,0-1.3-0.5c-0.2-0.3-0.2-0.5-0.2-1.8l0-2.3
		c-0.4,0-0.4,0-0.8,0l0-0.1c0-0.3,0-0.4,0-0.7l0.1-0.1c0.2,0,0.4,0,0.7,0c0-0.2,0-0.4,0-0.7c0-0.2,0-0.4,0-0.6l0.1-0.1
		c0.5-0.1,0.6-0.1,1.1-0.3l0.1,0.1c0,0.7,0,0.8,0,1.6c0.5,0,0.6,0,1.2,0l0.1,0.1c0,0.3,0,0.4,0,0.7l-0.1,0.1c-0.5,0-0.6,0-1.2,0
		l0,1.9c0,0.1,0,0.7,0,0.9c0,0.8,0.1,1,0.6,1C164.9,79.7,165.1,79.7,165.3,79.7L165.3,79.7z"/>
	<path d="M169,77.4c0.4,0.1,1.4,0.5,1.4,1.5c0,0.4-0.2,0.9-0.6,1.2c-0.6,0.5-1.4,0.5-1.8,0.5c-0.6,0-1.1-0.1-1.5-0.3
		c-0.1,0-0.1,0-0.2-0.1l-0.1-0.1c0-0.4,0-0.5,0.1-0.9l0.1,0c0.2,0.1,0.7,0.5,1.5,0.5c0.9,0,1.2-0.5,1.2-0.8c0-0.5-0.5-0.6-1.1-0.8
		l-0.3-0.1c-0.5-0.1-1.4-0.4-1.4-1.5c0-1.1,1-1.6,2.2-1.6c0.8,0,1.4,0.2,1.6,0.3l0.1,0.1c0,0.4-0.1,0.4-0.1,0.8l-0.1,0
		c-0.3-0.2-0.7-0.4-1.4-0.4c-0.2,0-0.3,0-0.5,0.1c-0.3,0.1-0.6,0.3-0.6,0.6c0,0.4,0.5,0.6,1.1,0.8L169,77.4z"/>
	<path d="M176.1,79.3c0,0.4-0.1,0.5-0.1,0.9l-0.1,0.1c-0.3,0.1-0.7,0.4-1.5,0.4c-1.7,0-2.7-1.1-2.7-2.7c0-1.6,1.1-2.9,2.8-2.9
		c0.7,0,1.2,0.2,1.5,0.3l0,0.1c0,0.4-0.1,0.5-0.1,0.8l-0.1,0c-0.4-0.2-0.8-0.4-1.2-0.4c-0.9,0-1.7,0.7-1.7,2c0,1.4,0.8,1.9,1.7,1.9
		C175.4,79.8,175.8,79.4,176.1,79.3L176.1,79.3z"/>
	<path d="M182.4,80.5c-0.5,0-0.6,0-1.1,0l-0.1-0.1l0-0.3c0-0.5,0-1.1,0-1.6l0-1.1c0-0.2,0-0.5-0.1-0.7c-0.1-0.5-0.4-0.8-1-0.8
		c-0.6,0-1.1,0.3-1.5,0.6c0,1.8,0,2.7,0.1,3.9l-0.1,0.1c-0.5,0-0.6,0-1.2,0l-0.1-0.1c0-0.7,0.1-1.7,0.1-3.6c0-0.9,0-1.7,0-2.6
		c0-0.9-0.1-1.2-0.1-1.7l0.1-0.1c0.5-0.1,0.7-0.1,1.2-0.2l0.1,0.1c-0.1,1.1-0.1,2.2-0.1,3.3c0.4-0.2,1-0.6,2-0.6
		c0.3,0,0.5,0,0.7,0.1c0.5,0.2,0.8,0.6,0.9,1c0.1,0.2,0.1,0.3,0.1,1v1.2l0,0.5C182.4,79.7,182.4,79.9,182.4,80.5L182.4,80.5z"/>
	<path d="M190.7,80.5c-0.7,0-0.8,0-1.5,0l-0.1-0.1c-0.1-0.6-0.3-1.5-0.5-2.2l-0.6-2.5l-0.6,2.5c-0.3,1.2-0.4,1.7-0.5,2.1l-0.1,0.1
		c-0.8,0-0.8,0-1.5,0l-0.1-0.1c-0.5-1.8-1.3-4.6-1.5-5.2l0-0.1c0.5,0,0.7,0,1.2-0.1l0.1,0.1c0.1,0.3,0.1,0.7,0.6,2.6l0.5,2.1
		l0.7-2.8c0.3-1.4,0.3-1.5,0.4-1.8l0.1-0.1c0.6,0,0.8,0,1.6,0l0.1,0.1c0.2,0.7,0.4,1.7,0.6,2.5l0.6,2.2l0.6-2.4
		c0.1-0.4,0.2-0.7,0.3-1.1c0.2-0.7,0.2-0.8,0.3-1.2l0.1-0.1c0.2,0,0.4,0,0.5,0c0.2,0,0.3,0,0.5,0l0.1,0.1
		C192.2,75.8,191.2,78.7,190.7,80.5L190.7,80.5z"/>
	<path d="M197.2,77.2c-1,0-1.4,0-2.8,0c0.1-1,0.8-1.4,1.4-1.4c0.5,0,1,0.2,1.2,0.8C197.2,76.8,197.2,77,197.2,77.2z M198.1,79.2
		c-0.1,0.1-0.4,0.3-0.8,0.5c-0.3,0.1-0.6,0.2-1,0.2c-0.3,0-1-0.1-1.4-0.6c-0.4-0.4-0.4-0.9-0.4-1.3c1.8,0,2.1,0,3.8,0l0.1-0.1
		c0-0.5,0-1.5-0.6-2.2c-0.3-0.4-0.9-0.7-1.8-0.7c-1.4,0-2.7,0.9-2.7,2.9c0,1.8,1.1,2.8,2.9,2.8c1,0,1.6-0.3,1.8-0.4l0.1-0.1
		C198.1,79.8,198.1,79.7,198.1,79.2L198.1,79.2z"/>
	<path d="M201.2,80.5c-0.6,0-0.7,0-1.2,0l-0.1-0.1c0-0.5,0.1-1,0.1-2.2c0-2,0-2.3-0.1-3l0.1-0.1c0.5-0.1,0.6-0.1,1.2-0.2l0.1,0.1
		c0,0.5-0.1,1.1-0.1,2.4C201.2,79.5,201.3,79.7,201.2,80.5L201.2,80.5z M201.3,73.6c-0.6,0-0.7,0-1.2,0.1l-0.1-0.1
		c0-0.1,0-0.3,0-0.4c0-0.2,0-0.4,0-0.6l0.1-0.1c0.6,0,0.7-0.1,1.2-0.1l0.1,0.1C201.3,73,201.3,73.1,201.3,73.6L201.3,73.6z"/>
	<path d="M206.9,80.5c-0.3,0-1.8,0-2.1,0c-1.3,0-1.4,0-2.1,0l0-0.1c0.8-1.3,2.2-3.5,2.7-4.5c-1.4,0-1.7,0-2.4,0l-0.1-0.1
		c0-0.3,0.1-0.4,0.1-0.7l0.1-0.1c1.8,0,2.1,0,4,0l0.1,0.1c-1,1.5-2.4,4-2.7,4.5c0.9,0,1.9,0,2.6-0.1l0.1,0.1
		C207,80,207,80.1,206.9,80.5L206.9,80.5z"/>
</g>
<g>
	<path d="M174.8,18c1.9,0.6,6.2,2,6.2,6.7c0,1.8-0.7,3.8-2.7,5.3c-2.5,2-5.9,2.2-7.6,2.2c-2.6,0-4.7-0.4-6.5-1.1
		c-0.2-0.1-0.5-0.2-0.7-0.3l-0.2-0.4c0.2-1.7,0.2-2,0.3-3.8l0.5-0.1c0.9,0.6,3,2.2,6.6,2.2c3.8,0,5.1-2,5.1-3.4c0-2.1-2-2.7-5-3.6
		l-1.5-0.5c-2-0.6-6.2-1.9-6.2-6.5c0-4.6,4.3-6.9,9.6-6.9c3.5,0,6,0.9,6.9,1.3l0.2,0.3c-0.2,1.7-0.2,1.8-0.4,3.5L179,13
		c-1.2-0.7-3-1.8-6.1-1.8c-0.7,0-1.3,0-2,0.2c-1.4,0.4-2.6,1.3-2.6,2.7c0,1.9,2,2.5,4.9,3.4L174.8,18z"/>
	<path d="M203.4,19.8c0,0.9,0,3.9-1.1,6c-1.4,2.5-3.7,3-5.4,3c-1,0-2-0.2-2.8-0.6c-3.8-1.8-3.8-6.3-3.8-8.1c0-1.9,0.1-4.5,1.4-6.3
		c1.7-2.5,4.3-2.6,5.2-2.6c2.7,0,4.2,1.2,5.1,2.6C203.2,15.7,203.4,18.7,203.4,19.8z M208.6,19.6c-0.1-3.1-0.7-6.3-2.9-8.7
		c-2.1-2.2-5.3-3.2-8.5-3.2c-4.8,0-7.5,1.8-8.9,3.1c-3.2,3-3.3,7.4-3.3,9.1c0,1.5,0,6.1,3.3,9.1c1.5,1.5,4.2,3,8.5,3
		c3.3,0,6.1-0.8,8.2-2.7c1.6-1.5,2.6-3.2,3.1-5.4C208.5,22.6,208.6,21.1,208.6,19.6z"/>
	<path d="M157.7,20c0,1.6-1.3,2.8-2.8,2.8S152,21.5,152,20c0-1.6,1.3-2.8,2.8-2.8S157.7,18.4,157.7,20z"/>
</g>
<g>
	<path d="M92.4,0.3c0,3.5-0.1,5.6-0.1,8.7c0,7.5,0.1,15,0.5,22.6l-0.2,0.3c-4,0-5,0-8.6,0.1l-0.2-0.3c0.2-6.3,0.2-7.8,0.1-13.9
		c-1.9,0-3.8-0.1-5.7-0.1c-1.9,0-3.6,0-5.7,0.1c0,6.5,0.1,8.1,0.4,13.7l-0.2,0.3c-4.2,0-5,0-8.5,0.1l-0.2-0.3c0.1-3.8,0.2-6,0.2-10
		c0-11.1-0.3-16.6-0.5-21.3l0.3-0.3c4.1,0,4.9,0,8.5-0.1l0.2,0.3l-0.1,11.8c1.7,0,3.4,0,5,0c2.1,0,4.2,0,6.3-0.1
		c0-5.3,0-6.6-0.4-11.7l0.2-0.3c4,0,4.6,0,8.4-0.1L92.4,0.3z"/>
	<path d="M105.6,17.1c0.1-1.4,0.5-3.3,2.3-4.3c0.6-0.4,1.2-0.5,1.9-0.5c1.6,0,2.5,0.8,3,1.6c0.7,1,0.7,2.1,0.7,3.1L105.6,17.1z
		 M120,25.2c-1.8,0.9-4,1.9-7.4,1.9c-2.9,0-4.8-0.9-6-2.5c-0.7-0.9-0.9-1.8-1-2.7l15.4-0.3l0.3-0.3c0-2.2-0.1-4.4-0.8-6.7
		c-1.7-5.3-5.3-6.4-7-6.7c-1.2-0.3-2.3-0.4-3.4-0.4c-7.5,0-12.4,4.6-12.4,12.4c0,2.1,0.4,4.3,1.1,5.9c2.8,6.1,9.2,6.6,12.7,6.6
		c4,0,5.7-0.7,8.2-1.6l0.3-0.4l0.3-5.1L120,25.2z"/>
	<path d="M140.1,17.1c2.6,0.9,6.3,2.2,6.3,7.2c0,0.3,0,0.6,0,1c-0.9,6.4-8,7-11.6,7c-3.5,0-5.5-0.7-7.8-1.5l-0.2-0.4
		c0.2-2.2,0.2-2.7,0.3-5.1l0.4-0.2c0.7,0.5,1.1,0.9,1.9,1.3c1.8,0.9,3.7,1.3,5,1.3c2.7,0,3.8-1.2,3.8-2.3c0-1.6-2.1-2.3-3.4-2.7
		L133,22c-2.2-0.8-6.2-2.2-6.2-7c0-1.8,0.7-3.1,1.3-3.9c2.5-3.4,7.1-3.5,9.5-3.5c3.1,0,5,0.5,7.3,1.1l0.2,0.3l-0.5,4.9l-0.4,0.1
		c-1.2-0.7-3-1.9-5.9-1.9c-3,0-3.3,1.5-3.3,2c0,1.3,1.3,1.7,2.9,2.3L140.1,17.1z"/>
</g>
<g>
	<g>
		<path d="M168.7,96.5c0,1.3,0,1.4,0.1,2.1l-0.1,0.1c-0.5,0-0.6,0-1.1,0l0-0.1l0-0.4c-0.2,0.2-0.7,0.5-1.5,0.5
			c-1.1,0-1.9-0.7-1.9-1.7c0-1.4,1.2-1.8,3.2-2l0.2,0c0-0.3,0-0.5-0.1-0.6c-0.1-0.2-0.4-0.4-0.9-0.4c-0.7,0-1.2,0.2-1.7,0.4
			l-0.1-0.1c0-0.5,0-0.5,0-0.8l0.1-0.1c0.6-0.2,1.2-0.3,1.9-0.3c0.8,0,1.6,0.3,1.8,1.1c0.1,0.3,0.1,0.9,0.1,1.3V96.5z M167.5,95.7
			c-1.1,0.2-2.1,0.3-2.1,1.2c0,0.1,0,0.9,1,0.9c0.7,0,1.1-0.4,1.2-0.5L167.5,95.7L167.5,95.7z"/>
		<path d="M175.4,98.6c-0.5,0-0.6,0-1.1,0l-0.1-0.1c0-0.1,0-0.2,0-0.3c0-0.5,0-1,0-1.5c0-1.6,0-1.7-0.1-1.9c-0.2-0.8-0.8-0.8-1-0.8
			c-0.7,0-1.2,0.4-1.5,0.6c0,1.8,0,2.7,0.1,3.9l-0.1,0.1c-0.5,0-0.6,0-1.1,0l-0.1-0.1c0-0.6,0-1.1,0-1.9c0-1.6-0.1-2.5-0.1-3.2
			l0.1-0.1c0.5-0.1,0.6-0.1,1.2-0.2l0.1,0.1l0,0.5c0.3-0.2,1-0.6,1.9-0.6c0.3,0,0.6,0,0.9,0.2c0.3,0.2,0.5,0.4,0.6,0.7
			c0.1,0.3,0.2,0.6,0.2,1.3v1.2C175.4,97.7,175.4,98.1,175.4,98.6L175.4,98.6z"/>
		<path d="M180.8,90.6c0.6-0.1,0.7-0.1,1.2-0.2l0.1,0.1c-0.1,1.4-0.1,4-0.1,5c0,1.6,0,2.4,0.1,3.1l-0.1,0.1c-0.5,0-0.6,0-1.1,0
			l-0.1-0.1l0-0.4c-0.3,0.2-0.7,0.5-1.5,0.5c-1.5,0-2.5-1.1-2.5-2.6c0-1.1,0.5-1.8,1-2.2c0.8-0.7,1.8-0.7,2.4-0.7c0.2,0,0.3,0,0.6,0
			C180.8,91.9,180.8,91.2,180.8,90.6L180.8,90.6z M180.8,94c-0.2,0-0.3,0-0.5,0c-0.3,0-1.1,0-1.6,0.5c-0.2,0.2-0.6,0.7-0.6,1.6
			c0,0.6,0.2,1,0.4,1.3c0.2,0.2,0.6,0.5,1.1,0.5c0.7,0,1.1-0.3,1.2-0.5C180.8,96,180.8,95.7,180.8,94z"/>
	</g>
	<g>
		<path d="M190.8,91.5c0.4,1.1,0.8,2.4,1.1,3.4c0.3,1,0.9,2.6,1.2,3.6l0,0.1c-0.6,0-0.8,0-1.3,0l-0.1-0.1c-0.3-1-0.4-1.2-0.6-2.2
			c-0.4,0-0.9,0-1.3,0c-0.5,0-1,0-1.4,0c-0.3,1-0.4,1.2-0.6,2.1l-0.1,0.1c-0.5,0-0.6,0-1.1,0l0-0.1c0-0.1,0.1-0.2,0.1-0.3
			c0.4-1.1,0.8-2.2,1.2-3.3c0.7-1.8,0.9-2.5,1.2-3.5l0.1-0.1c0.8,0,0.9,0,1.6,0l0.1,0.1L190.8,91.5z M188.6,95.5c0.3,0,0.7,0,1,0
			c0.4,0,0.8,0,1.1,0l-1-3.5L188.6,95.5z"/>
		<path d="M196.9,94.3c-0.1,0-0.3-0.1-0.4-0.1c-0.2,0-0.4,0.1-0.5,0.1c-0.4,0.3-0.4,0.8-0.4,1.8c0,1.2,0,1.8,0.1,2.3l-0.1,0.1
			c-0.5,0-0.6,0-1.2,0l-0.1-0.1c0-0.8,0-1.5,0-2.5c0-1.6,0-2.1-0.1-2.7l0.1-0.1c0.4-0.1,0.7-0.1,1.1-0.2l0.1,0.1l-0.1,0.9
			c0.1-0.3,0.4-1,1.3-1c0.1,0,0.2,0,0.3,0l0,0.1C197,93.7,197,93.8,196.9,94.3L196.9,94.3z"/>
		<path d="M201.3,97.8c0,0.3,0,0.4,0,0.7l-0.1,0.1c-0.2,0.1-0.4,0.1-0.8,0.1c-0.3,0-1,0-1.3-0.5c-0.2-0.3-0.2-0.5-0.2-1.8l0-2.3
			c-0.4,0-0.4,0-0.8,0l0-0.1c0-0.3,0-0.4,0-0.7l0.1-0.1c0.2,0,0.4,0,0.7,0c0-0.2,0-0.4,0-0.7c0-0.2,0-0.4,0-0.6l0.1-0.1
			c0.5-0.1,0.6-0.1,1.1-0.3l0.1,0.1c0,0.7,0,0.8,0,1.6c0.5,0,0.6,0,1.2,0l0.1,0.1c0,0.3,0,0.4,0,0.7l-0.1,0.1c-0.5,0-0.6,0-1.2,0
			l0,1.9c0,0.1,0,0.7,0,0.9c0,0.8,0.1,1,0.6,1C201,97.8,201.1,97.7,201.3,97.8L201.3,97.8z"/>
		<path d="M205.2,95.4c0.4,0.1,1.4,0.5,1.4,1.5c0,0.4-0.2,0.9-0.6,1.2c-0.6,0.5-1.4,0.5-1.8,0.5c-0.6,0-1.1-0.1-1.5-0.3
			c-0.1,0-0.1,0-0.2-0.1l-0.1-0.1c0-0.4,0-0.5,0.1-0.9l0.1,0c0.2,0.1,0.7,0.5,1.5,0.5c0.9,0,1.2-0.5,1.2-0.8c0-0.5-0.5-0.6-1.1-0.8
			l-0.3-0.1c-0.4-0.1-1.4-0.4-1.4-1.5c0-1.1,1-1.6,2.2-1.6c0.8,0,1.4,0.2,1.6,0.3l0.1,0.1c0,0.4-0.1,0.4-0.1,0.8l-0.1,0
			c-0.3-0.2-0.7-0.4-1.4-0.4c-0.2,0-0.3,0-0.5,0.1c-0.3,0.1-0.6,0.3-0.6,0.6c0,0.4,0.4,0.6,1.1,0.8L205.2,95.4z"/>
	</g>
	<g>
		<path d="M5.9,91.3c0,0.9,0,1.2,0,2c0,0.4,0,0.8,0,1.5l0,0.9c0,0.6,0,1.5-0.6,2.2c-0.5,0.5-1.4,0.8-2.3,0.8c-1.4,0-2.1-0.5-2.4-0.8
			C0,97.3,0,96.6,0,95.4v-1.1c0-1.5,0-1.7,0-3l0.1-0.1c0.6,0,0.7,0,1.2,0l0.1,0.1c0,1.1,0,2.9,0,3.9c0,1,0,1.7,0.4,2.1
			c0.2,0.2,0.6,0.5,1.4,0.5c0.3,0,1.1,0,1.6-0.8c0.2-0.4,0.2-1,0.2-1.8c0-1.2,0-2.7-0.1-3.9l0.1-0.1C5.3,91.3,5.4,91.3,5.9,91.3
			L5.9,91.3z"/>
		<path d="M12.8,98.6c-0.5,0-0.6,0-1.1,0l-0.1-0.1c0-0.1,0-0.2,0-0.3c0-0.5,0-1,0-1.5c0-1.6,0-1.7-0.1-1.9c-0.2-0.8-0.8-0.8-1-0.8
			c-0.7,0-1.2,0.4-1.5,0.6c0,1.8,0,2.7,0.1,3.9l-0.1,0.1c-0.5,0-0.6,0-1.1,0L8,98.5c0-0.6,0-1.1,0-1.9C8,95,8,94.1,7.9,93.4L8,93.4
			c0.5-0.1,0.6-0.1,1.2-0.2l0.1,0.1l0,0.5c0.3-0.2,1-0.6,1.9-0.6c0.3,0,0.6,0,0.9,0.2c0.3,0.2,0.5,0.4,0.6,0.7
			c0.1,0.3,0.2,0.6,0.2,1.3v1.2C12.9,97.7,12.9,98.1,12.8,98.6L12.8,98.6z"/>
		<path d="M16.1,98.6c-0.6,0-0.7,0-1.2,0l-0.1-0.1c0-0.5,0.1-1,0.1-2.2c0-2,0-2.3-0.1-2.9l0.1-0.1c0.5-0.1,0.6-0.1,1.2-0.2l0.1,0.1
			c0,0.5-0.1,1.1-0.1,2.4C16.1,97.6,16.1,97.8,16.1,98.6L16.1,98.6z M16.1,91.7c-0.6,0-0.7,0-1.2,0.1l-0.1-0.1c0-0.1,0-0.3,0-0.4
			c0-0.2,0-0.4,0-0.6l0.1-0.1c0.6,0,0.7-0.1,1.2-0.1l0.1,0.1C16.2,91.1,16.2,91.2,16.1,91.7L16.1,91.7z"/>
		<path d="M20.5,98.6c-0.6,0-0.8,0-1.4,0l-0.1-0.1c-0.5-1.8-1.1-3.5-1.7-5.2l0-0.1c0.5,0,0.7,0,1.2-0.1l0.1,0.1
			c0.4,1.5,0.9,3.1,1.3,4.6c0.1-0.4,0.7-2.2,0.8-2.6c0.4-1.2,0.5-1.6,0.5-2l0.1-0.1c0.5,0,0.6,0,1,0l0.1,0.1
			C21.8,95,21.2,96.7,20.5,98.6L20.5,98.6z"/>
		<path d="M28.2,97.3c-0.1,0.4-0.1,0.5-0.1,0.9L28,98.3c-0.2,0.1-0.8,0.4-1.7,0.4c-1.8,0-2.9-1-2.9-2.8c0-1.9,1.2-2.9,2.7-2.9
			c0.9,0,1.5,0.3,1.8,0.7c0.6,0.7,0.6,1.7,0.6,2.2L28.3,96c-1.7,0-2,0-3.8,0c0,0.4,0,0.9,0.4,1.3c0.4,0.5,1.1,0.6,1.4,0.6
			c0.3,0,0.6-0.1,1-0.2C27.7,97.6,28,97.4,28.2,97.3L28.2,97.3z M27.2,94.6c-0.2-0.6-0.7-0.8-1.2-0.8c-0.6,0-1.3,0.4-1.4,1.4
			c1.3,0,1.7,0,2.7,0C27.3,95.1,27.3,94.9,27.2,94.6z"/>
		<path d="M32.6,94.3c-0.1,0-0.3-0.1-0.4-0.1c-0.2,0-0.4,0.1-0.5,0.1c-0.4,0.3-0.4,0.8-0.4,1.8c0,1.2,0,1.8,0.1,2.3l-0.1,0.1
			c-0.5,0-0.6,0-1.2,0l-0.1-0.1c0-0.8,0-1.5,0-2.5c0-1.6,0-2.1-0.1-2.7l0.1-0.1c0.4-0.1,0.7-0.1,1.1-0.2l0.1,0.1l-0.1,0.9
			c0.1-0.3,0.4-1,1.3-1c0.1,0,0.2,0,0.3,0l0,0.1C32.8,93.7,32.8,93.8,32.6,94.3L32.6,94.3z"/>
		<path d="M36.5,95.4C37,95.6,38,95.9,38,97c0,0.4-0.2,0.9-0.6,1.2c-0.6,0.5-1.4,0.5-1.7,0.5c-0.6,0-1.1-0.1-1.5-0.3
			c-0.1,0-0.1,0-0.2-0.1l-0.1-0.1c0-0.4,0-0.5,0.1-0.9l0.1,0c0.2,0.1,0.7,0.5,1.5,0.5c0.9,0,1.2-0.5,1.2-0.8c0-0.5-0.5-0.6-1.1-0.8
			l-0.3-0.1c-0.4-0.1-1.4-0.4-1.4-1.5c0-1.1,1-1.6,2.2-1.6c0.8,0,1.4,0.2,1.6,0.3l0.1,0.1c0,0.4-0.1,0.4-0.1,0.8l-0.1,0
			c-0.3-0.2-0.7-0.4-1.4-0.4c-0.2,0-0.3,0-0.5,0.1C35.3,94,35,94.2,35,94.6c0,0.4,0.4,0.6,1.1,0.8L36.5,95.4z"/>
		<path d="M40.7,98.6c-0.6,0-0.7,0-1.2,0l-0.1-0.1c0-0.5,0.1-1,0.1-2.2c0-2,0-2.3-0.1-2.9l0.1-0.1c0.5-0.1,0.6-0.1,1.2-0.2l0.1,0.1
			c0,0.5-0.1,1.1-0.1,2.4C40.7,97.6,40.7,97.8,40.7,98.6L40.7,98.6z M40.7,91.7c-0.6,0-0.7,0-1.2,0.1l-0.1-0.1c0-0.1,0-0.3,0-0.4
			c0-0.2,0-0.4,0-0.6l0.1-0.1c0.6,0,0.7-0.1,1.2-0.1l0.1,0.1C40.8,91.1,40.8,91.2,40.7,91.7L40.7,91.7z"/>
		<path d="M45.2,97.8c0,0.3,0,0.4,0,0.7l-0.1,0.1c-0.2,0.1-0.4,0.1-0.8,0.1c-0.3,0-1,0-1.3-0.5c-0.2-0.3-0.2-0.5-0.2-1.8l0-2.3
			c-0.4,0-0.4,0-0.8,0l0-0.1c0-0.3,0-0.4,0-0.7l0.1-0.1c0.2,0,0.4,0,0.7,0c0-0.2,0-0.4,0-0.7c0-0.2,0-0.4,0-0.6l0.1-0.1
			c0.5-0.1,0.6-0.1,1.1-0.3l0.1,0.1c0,0.7,0,0.8,0,1.6c0.5,0,0.6,0,1.2,0l0.1,0.1c0,0.3,0,0.4,0,0.7l-0.1,0.1c-0.5,0-0.6,0-1.2,0
			l0,1.9c0,0.1,0,0.7,0,0.9c0,0.8,0.1,1,0.6,1C44.9,97.8,45.1,97.7,45.2,97.8L45.2,97.8z"/>
		<path d="M51,93.3c-0.6,1.5-1.7,4.2-1.9,4.9c-0.3,0.9-0.7,1.9-0.9,2.8l-0.1,0.1c-0.5,0-0.6,0-1.2,0l0-0.1l0-0.1
			c0.2-0.4,0.4-0.8,0.5-1.2c0.2-0.3,0.3-0.7,0.5-1c0,0,0-0.1,0-0.1c0-0.1-1.6-4.3-2.1-5.3l0-0.1c0.5,0,0.7,0,1.2-0.1l0.1,0.1
			c0.3,0.9,0.4,1.4,0.7,2l0.7,2l0.6-1.8c0.2-0.7,0.5-1.6,0.7-2.1l0.1-0.1C50.1,93.2,50.4,93.2,51,93.3L51,93.3z"/>
	</g>
	<g>
		<path d="M60.9,96.8c-0.1,0.5-0.4,0.9-0.7,1.2c-0.5,0.5-1.1,0.6-1.9,0.6c-1,0-1.6-0.4-2-0.7c-0.7-0.7-0.8-1.8-0.8-2.1
			c0-0.4,0-1.4,0.8-2.1c0.3-0.3,0.9-0.7,2-0.7c0.7,0,1.5,0.2,2,0.7c0.5,0.5,0.6,1.3,0.7,2C61,96.2,61,96.5,60.9,96.8z M59.5,94.5
			c-0.2-0.3-0.6-0.6-1.2-0.6c-0.2,0-0.8,0-1.2,0.6c-0.3,0.4-0.3,1-0.3,1.5c0,0.4,0,1.5,0.9,1.9c0.2,0.1,0.4,0.1,0.6,0.1
			c0.4,0,0.9-0.1,1.2-0.7c0.3-0.5,0.3-1.2,0.3-1.4C59.8,95.6,59.8,94.9,59.5,94.5z"/>
		<path d="M64.1,98.6c-0.5,0-0.6,0-1.2,0l-0.1-0.1c0.1-1.1,0.1-2.2,0.1-3.3c0-0.5,0-0.7,0-1.2c-0.3,0-0.5,0-0.8,0L62,94
			c0-0.3,0-0.4,0-0.7l0.1-0.1c0.3,0,0.5,0,0.7,0l0-0.7c0-0.5,0-0.6,0-0.8c0.3-1.2,1.6-1.2,1.9-1.2c0.2,0,0.3,0,0.4,0l0.1,0.1
			c0,0.3-0.1,0.4-0.1,0.7l-0.1,0.1c-0.1,0-0.2,0-0.3,0c-0.2,0-0.5,0-0.7,0.3C64,91.9,64,92.2,64,92.9v0.3c0,0,1,0,1.1,0l0.1,0.1
			c0,0.3,0,0.4,0,0.7L65,94.1c-0.5,0-0.6,0-1,0c0,1.4,0,2.8,0.1,4.1C64.1,98.3,64.1,98.4,64.1,98.6L64.1,98.6z"/>
		<path d="M73.7,91.5c0.4,1.1,0.8,2.4,1.1,3.4c0.3,1,0.9,2.6,1.2,3.6l0,0.1c-0.6,0-0.8,0-1.3,0l-0.1-0.1c-0.3-1-0.4-1.2-0.6-2.2
			c-0.4,0-0.9,0-1.3,0c-0.5,0-1,0-1.4,0c-0.3,1-0.4,1.2-0.6,2.1l-0.1,0.1c-0.5,0-0.6,0-1.1,0l0-0.1c0-0.1,0.1-0.2,0.1-0.3
			c0.4-1.1,0.8-2.2,1.2-3.3c0.7-1.8,0.9-2.5,1.2-3.5l0.1-0.1c0.8,0,0.9,0,1.6,0l0.1,0.1L73.7,91.5z M71.6,95.5c0.3,0,0.7,0,1,0
			c0.4,0,0.8,0,1.1,0l-1-3.5L71.6,95.5z"/>
		<path d="M78.5,93.6c0.2-0.2,0.7-0.6,1.6-0.6c1.4,0,2.4,1.1,2.4,2.5c0,1.6-1.1,3-3.4,3c-0.2,0-0.3,0-0.5,0c0,1.2,0,1.5,0.1,2.5
			l-0.1,0.1c-0.4,0-0.8,0-1.1,0l-0.1-0.1c0-0.6,0-1.3,0-2.3c0-0.6,0-1.2,0-1.8c0-1.6,0-2.3-0.1-3.5l0.1-0.1c0.5-0.1,0.7-0.1,1.1-0.2
			l0.1,0.1L78.5,93.6z M78.9,97.8c1.4,0,2.3-0.9,2.3-2.1c0-1.1-0.6-1.7-1.5-1.7c-0.6,0-1,0.3-1.3,0.4c0,0.5,0,1.1,0,1.6
			c0,0.6,0,1.2,0,1.8C78.6,97.8,78.8,97.8,78.9,97.8z"/>
		<path d="M85.3,93.6c0.2-0.2,0.7-0.6,1.6-0.6c1.4,0,2.4,1.1,2.4,2.5c0,1.6-1.1,3-3.4,3c-0.2,0-0.3,0-0.5,0c0,1.2,0,1.5,0.1,2.5
			l-0.1,0.1c-0.4,0-0.8,0-1.1,0l-0.1-0.1c0-0.6,0-1.3,0-2.3c0-0.6,0-1.2,0-1.8c0-1.6,0-2.3-0.1-3.5l0.1-0.1c0.5-0.1,0.7-0.1,1.1-0.2
			l0.1,0.1L85.3,93.6z M85.8,97.8c1.4,0,2.3-0.9,2.3-2.1c0-1.1-0.6-1.7-1.5-1.7c-0.6,0-1,0.3-1.3,0.4c0,0.5,0,1.1,0,1.6
			c0,0.6,0,1.2,0,1.8C85.5,97.8,85.6,97.8,85.8,97.8z"/>
		<path d="M92.2,98.6c-0.5,0-0.6,0-1.1,0L91,98.5c0-0.7,0.1-1.7,0.1-3.6c0-1.4,0-2.9-0.1-4.3l0.1-0.1c0.5-0.1,0.6-0.1,1.2-0.2
			l0.1,0.1c-0.1,1.4-0.1,2.7-0.1,4.1C92.2,96.7,92.2,97.5,92.2,98.6L92.2,98.6z"/>
		<path d="M95.5,98.6c-0.6,0-0.7,0-1.2,0l-0.1-0.1c0-0.5,0.1-1,0.1-2.2c0-2,0-2.3-0.1-2.9l0.1-0.1c0.5-0.1,0.6-0.1,1.2-0.2l0.1,0.1
			c0,0.5-0.1,1.1-0.1,2.4C95.5,97.6,95.5,97.8,95.5,98.6L95.5,98.6z M95.5,91.7c-0.6,0-0.7,0-1.2,0.1l-0.1-0.1c0-0.1,0-0.3,0-0.4
			c0-0.2,0-0.4,0-0.6l0.1-0.1c0.6,0,0.7-0.1,1.2-0.1l0.1,0.1C95.6,91.1,95.6,91.2,95.5,91.7L95.5,91.7z"/>
		<path d="M102.1,97.3c-0.1,0.4-0.1,0.5-0.1,0.9l-0.1,0.1c-0.2,0.1-0.8,0.4-1.7,0.4c-1.8,0-2.9-1-2.9-2.8c0-1.9,1.2-2.9,2.7-2.9
			c0.9,0,1.5,0.3,1.8,0.7c0.6,0.7,0.6,1.7,0.6,2.2l-0.1,0.1c-1.7,0-2,0-3.8,0c0,0.4,0,0.9,0.4,1.3c0.4,0.5,1.1,0.6,1.4,0.6
			c0.3,0,0.6-0.1,1-0.2C101.6,97.6,101.8,97.4,102.1,97.3L102.1,97.3z M101,94.6c-0.2-0.6-0.7-0.8-1.2-0.8c-0.6,0-1.3,0.4-1.4,1.4
			c1.3,0,1.7,0,2.7,0C101.1,95.1,101.1,94.9,101,94.6z"/>
		<path d="M107.6,90.6c0.6-0.1,0.7-0.1,1.2-0.2l0.1,0.1c-0.1,1.4-0.1,4-0.1,5c0,1.6,0,2.4,0.1,3.1l-0.1,0.1c-0.5,0-0.6,0-1.1,0
			l-0.1-0.1l0-0.4c-0.3,0.2-0.7,0.5-1.5,0.5c-1.5,0-2.5-1.1-2.5-2.6c0-1.1,0.5-1.8,1-2.2c0.8-0.7,1.8-0.7,2.4-0.7c0.2,0,0.3,0,0.6,0
			C107.7,91.9,107.6,91.2,107.6,90.6L107.6,90.6z M107.6,94c-0.2,0-0.3,0-0.5,0c-0.3,0-1.1,0-1.6,0.5c-0.2,0.2-0.6,0.7-0.6,1.6
			c0,0.6,0.2,1,0.4,1.3c0.2,0.2,0.6,0.5,1.1,0.5c0.7,0,1.1-0.3,1.2-0.5C107.7,96,107.7,95.7,107.6,94z"/>
	</g>
	<g>
		<path d="M117.4,94.5c0.8,0.3,1.9,0.8,1.9,2.1c0,1.2-0.9,2.2-2.8,2.2c-1.2,0-1.9-0.3-2.2-0.5l0-0.1c0-0.4,0.1-0.6,0.1-0.9l0.1,0
			c0.3,0.2,0.9,0.6,1.9,0.6c1.1,0,1.6-0.5,1.6-1.2c0-0.7-0.6-1-1.3-1.3l-0.5-0.2c-0.8-0.3-1.8-0.8-1.8-2c0-0.4,0.1-0.8,0.3-1.1
			c0.5-0.7,1.4-0.9,2.3-0.9c0.9,0,1.4,0.2,2,0.3l0.1,0.1c0,0.4-0.1,0.5-0.1,0.9l-0.1,0c-0.5-0.2-1-0.5-1.8-0.5c-0.9,0-1.5,0.4-1.5,1
			c0,0.5,0.3,0.7,0.6,0.8c0.1,0.1,0.2,0.1,0.8,0.4L117.4,94.5z"/>
		<path d="M125.1,97.4c0,0.4-0.1,0.5-0.1,0.9l-0.1,0.1c-0.3,0.1-0.7,0.4-1.5,0.4c-1.7,0-2.7-1.1-2.7-2.7c0-1.6,1-2.9,2.7-2.9
			c0.7,0,1.2,0.2,1.5,0.3l0,0.1c0,0.4-0.1,0.5-0.1,0.8l-0.1,0c-0.4-0.2-0.8-0.4-1.2-0.4c-0.9,0-1.7,0.7-1.7,2c0,1.4,0.8,1.9,1.7,1.9
			C124.3,97.8,124.8,97.5,125.1,97.4L125.1,97.4z"/>
		<path d="M127.7,98.6c-0.6,0-0.7,0-1.2,0l-0.1-0.1c0-0.5,0.1-1,0.1-2.2c0-2,0-2.3-0.1-2.9l0.1-0.1c0.5-0.1,0.6-0.1,1.2-0.2l0.1,0.1
			c0,0.5-0.1,1.1-0.1,2.4C127.7,97.6,127.7,97.8,127.7,98.6L127.7,98.6z M127.7,91.7c-0.6,0-0.7,0-1.2,0.1l-0.1-0.1
			c0-0.1,0-0.3,0-0.4c0-0.2,0-0.4,0-0.6l0.1-0.1c0.6,0,0.7-0.1,1.2-0.1l0.1,0.1C127.8,91.1,127.8,91.2,127.7,91.7L127.7,91.7z"/>
		<path d="M134.3,97.3c-0.1,0.4-0.1,0.5-0.1,0.9l-0.1,0.1c-0.2,0.1-0.8,0.4-1.7,0.4c-1.8,0-2.9-1-2.9-2.8c0-1.9,1.2-2.9,2.7-2.9
			c0.9,0,1.5,0.3,1.8,0.7c0.6,0.7,0.6,1.7,0.6,2.2l-0.1,0.1c-1.7,0-2,0-3.8,0c0,0.4,0,0.9,0.4,1.3c0.4,0.5,1.1,0.6,1.4,0.6
			c0.3,0,0.6-0.1,1-0.2C133.8,97.6,134,97.4,134.3,97.3L134.3,97.3z M133.3,94.6c-0.2-0.6-0.7-0.8-1.2-0.8c-0.6,0-1.3,0.4-1.4,1.4
			c1.3,0,1.7,0,2.7,0C133.4,95.1,133.3,94.9,133.3,94.6z"/>
		<path d="M141,98.6c-0.5,0-0.6,0-1.1,0l-0.1-0.1c0-0.1,0-0.2,0-0.3c0-0.5,0-1,0-1.5c0-1.6,0-1.7-0.1-1.9c-0.2-0.8-0.8-0.8-1-0.8
			c-0.7,0-1.2,0.4-1.5,0.6c0,1.8,0,2.7,0.1,3.9l-0.1,0.1c-0.5,0-0.6,0-1.1,0l-0.1-0.1c0-0.6,0-1.1,0-1.9c0-1.6-0.1-2.5-0.1-3.2
			l0.1-0.1c0.5-0.1,0.6-0.1,1.2-0.2l0.1,0.1l0,0.5c0.3-0.2,1-0.6,1.9-0.6c0.3,0,0.6,0,0.9,0.2c0.3,0.2,0.5,0.4,0.6,0.7
			c0.1,0.3,0.2,0.6,0.2,1.3v1.2C141,97.7,141.1,98.1,141,98.6L141,98.6z"/>
		<path d="M147.2,97.4c0,0.4-0.1,0.5-0.1,0.9l-0.1,0.1c-0.3,0.1-0.7,0.4-1.5,0.4c-1.7,0-2.7-1.1-2.7-2.7c0-1.6,1-2.9,2.7-2.9
			c0.7,0,1.2,0.2,1.5,0.3l0,0.1c0,0.4-0.1,0.5-0.1,0.8l-0.1,0c-0.4-0.2-0.8-0.4-1.2-0.4c-0.9,0-1.7,0.7-1.7,2c0,1.4,0.8,1.9,1.7,1.9
			C146.4,97.8,146.9,97.5,147.2,97.4L147.2,97.4z"/>
		<path d="M153.1,97.3c-0.1,0.4-0.1,0.5-0.1,0.9l-0.1,0.1c-0.2,0.1-0.8,0.4-1.8,0.4c-1.8,0-2.9-1-2.9-2.8c0-1.9,1.2-2.9,2.7-2.9
			c0.9,0,1.5,0.3,1.8,0.7c0.6,0.7,0.6,1.7,0.6,2.2l-0.1,0.1c-1.7,0-2,0-3.8,0c0,0.4,0,0.9,0.4,1.3c0.4,0.5,1.1,0.6,1.4,0.6
			c0.3,0,0.6-0.1,1-0.2C152.6,97.6,152.9,97.4,153.1,97.3L153.1,97.3z M152.1,94.6c-0.2-0.6-0.7-0.8-1.2-0.8c-0.6,0-1.3,0.4-1.4,1.4
			c1.3,0,1.7,0,2.7,0C152.2,95.1,152.2,94.9,152.1,94.6z"/>
		<path d="M157.3,95.4c0.4,0.1,1.4,0.5,1.4,1.5c0,0.4-0.2,0.9-0.6,1.2c-0.6,0.5-1.4,0.5-1.7,0.5c-0.6,0-1.1-0.1-1.5-0.3
			c-0.1,0-0.1,0-0.2-0.1l-0.1-0.1c0-0.4,0-0.5,0.1-0.9l0.1,0c0.2,0.1,0.7,0.5,1.5,0.5c0.9,0,1.2-0.5,1.2-0.8c0-0.5-0.5-0.6-1.1-0.8
			l-0.3-0.1c-0.4-0.1-1.4-0.4-1.4-1.5c0-1.1,1-1.6,2.2-1.6c0.8,0,1.4,0.2,1.6,0.3l0.1,0.1c0,0.4-0.1,0.4-0.1,0.8l-0.1,0
			c-0.3-0.2-0.7-0.4-1.4-0.4c-0.2,0-0.3,0-0.5,0.1c-0.3,0.1-0.6,0.3-0.6,0.6c0,0.4,0.4,0.6,1.1,0.8L157.3,95.4z"/>
	</g>
	<g>
		<path d="M107,110.9c-0.7,0-0.9,0-1.6,0l-0.1-0.1c-0.2-1-0.2-1.3-0.4-2.1l-0.9-4.4l-0.9,4.2c-0.1,0.3-0.1,0.6-0.2,0.8
			c-0.1,0.4-0.3,1.2-0.3,1.4l-0.1,0.1c-0.8,0-0.8,0-1.6,0l-0.1-0.1c-0.2-0.9-1.1-4.8-1.7-7.2l0.1-0.1c0.6,0,0.7,0,1.2,0l0.1,0.1
			c0.1,0.4,0.1,0.7,0.2,1.2c0.1,0.5,0.2,0.9,0.3,1.4l0.8,3.9l0.9-4.6c0.2-0.8,0.2-0.9,0.4-1.9l0.1-0.1c0.8,0,1,0,1.7,0l0.1,0.1
			c0,0.1,0,0.2,0,0.3c0,0.3,0.3,1.6,0.4,1.9l0.9,4.3l0.9-4.1c0.4-2,0.4-2,0.5-2.4l0.1-0.1c0.5,0,0.6,0,1.1,0l0.1,0.1
			c-0.3,0.8-0.3,1.1-0.9,3.6c-0.3,1.1-0.6,2.2-0.8,3.4C107.2,110.7,107.1,110.7,107,110.9L107,110.9z"/>
		<path d="M114.5,109.6c-0.1,0.4-0.1,0.5-0.1,0.9l-0.1,0.1c-0.2,0.1-0.8,0.4-1.7,0.4c-1.8,0-2.9-1-2.9-2.8c0-1.9,1.2-2.9,2.7-2.9
			c0.9,0,1.5,0.3,1.8,0.7c0.6,0.7,0.6,1.7,0.6,2.2l-0.1,0.1c-1.7,0-2,0-3.8,0c0,0.4,0,0.9,0.4,1.3c0.4,0.5,1.1,0.6,1.4,0.6
			c0.3,0,0.6-0.1,1-0.2C114,109.9,114.3,109.7,114.5,109.6L114.5,109.6z M113.5,106.9c-0.2-0.6-0.7-0.8-1.2-0.8
			c-0.6,0-1.3,0.4-1.4,1.4c1.3,0,1.7,0,2.7,0C113.6,107.4,113.6,107.2,113.5,106.9z"/>
		<path d="M118.7,107.7c0.4,0.1,1.4,0.5,1.4,1.5c0,0.4-0.2,0.9-0.6,1.2c-0.6,0.5-1.4,0.5-1.7,0.5c-0.6,0-1.1-0.1-1.5-0.3
			c-0.1,0-0.1,0-0.2-0.1l-0.1-0.1c0-0.4,0-0.5,0.1-0.9l0.1,0c0.2,0.1,0.7,0.5,1.5,0.5c0.9,0,1.2-0.5,1.2-0.8c0-0.5-0.5-0.6-1.1-0.8
			l-0.3-0.1c-0.4-0.1-1.4-0.4-1.4-1.5c0-1.1,1-1.6,2.2-1.6c0.8,0,1.4,0.2,1.6,0.3l0.1,0.1c0,0.4-0.1,0.4-0.1,0.8l-0.1,0
			c-0.3-0.2-0.7-0.4-1.4-0.4c-0.2,0-0.3,0-0.5,0.1c-0.3,0.1-0.6,0.3-0.6,0.6c0,0.4,0.4,0.6,1.1,0.8L118.7,107.7z"/>
		<path d="M124.2,110.1c0,0.3,0,0.4,0,0.7l-0.1,0.1c-0.2,0.1-0.4,0.1-0.8,0.1c-0.3,0-1,0-1.3-0.5c-0.2-0.3-0.2-0.5-0.2-1.8l0-2.3
			c-0.4,0-0.4,0-0.8,0l0-0.1c0-0.3,0-0.4,0-0.7l0.1-0.1c0.2,0,0.4,0,0.7,0c0-0.2,0-0.4,0-0.7c0-0.2,0-0.4,0-0.6l0.1-0.1
			c0.5-0.1,0.6-0.1,1.1-0.3l0.1,0.1c0,0.7,0,0.8,0,1.6c0.5,0,0.6,0,1.2,0l0.1,0.1c0,0.3,0,0.4,0,0.7l-0.1,0.1c-0.5,0-0.6,0-1.2,0
			l0,1.9c0,0.1,0,0.7,0,0.9c0,0.8,0.1,1,0.6,1C123.8,110.1,124,110,124.2,110.1L124.2,110.1z"/>
		<path d="M130.1,109.6c-0.1,0.4-0.1,0.5-0.1,0.9l-0.1,0.1c-0.2,0.1-0.8,0.4-1.7,0.4c-1.8,0-2.9-1-2.9-2.8c0-1.9,1.2-2.9,2.7-2.9
			c0.9,0,1.5,0.3,1.8,0.7c0.6,0.7,0.6,1.7,0.6,2.2l-0.1,0.1c-1.7,0-2,0-3.8,0c0,0.4,0,0.9,0.4,1.3c0.4,0.5,1.1,0.6,1.4,0.6
			c0.3,0,0.6-0.1,1-0.2C129.7,109.9,129.9,109.7,130.1,109.6L130.1,109.6z M129.1,106.9c-0.2-0.6-0.7-0.8-1.2-0.8
			c-0.6,0-1.3,0.4-1.4,1.4c1.3,0,1.7,0,2.7,0C129.2,107.4,129.2,107.2,129.1,106.9z"/>
		<path d="M134.6,106.6c-0.1,0-0.3-0.1-0.4-0.1c-0.2,0-0.4,0.1-0.5,0.1c-0.4,0.3-0.4,0.8-0.4,1.8c0,1.2,0,1.8,0.1,2.3l-0.1,0.1
			c-0.5,0-0.6,0-1.2,0l-0.1-0.1c0-0.8,0-1.5,0-2.5c0-1.6,0-2.1-0.1-2.7l0.1-0.1c0.4-0.1,0.7-0.1,1.1-0.2l0.1,0.1l-0.1,0.9
			c0.1-0.3,0.4-1,1.3-1c0.1,0,0.2,0,0.3,0l0,0.1C134.8,106,134.7,106.1,134.6,106.6L134.6,106.6z"/>
		<path d="M141,110.9c-0.5,0-0.6,0-1.1,0l-0.1-0.1c0-0.1,0-0.2,0-0.3c0-0.5,0-1,0-1.5c0-1.6,0-1.7-0.1-1.9c-0.2-0.8-0.8-0.8-1-0.8
			c-0.7,0-1.2,0.4-1.5,0.6c0,1.8,0,2.7,0.1,3.9l-0.1,0.1c-0.5,0-0.6,0-1.1,0l-0.1-0.1c0-0.6,0-1.1,0-1.9c0-1.6-0.1-2.5-0.1-3.2
			l0.1-0.1c0.5-0.1,0.6-0.1,1.2-0.2l0.1,0.1l0,0.5c0.3-0.2,1-0.6,1.9-0.6c0.3,0,0.6,0,0.9,0.2c0.3,0.2,0.5,0.4,0.6,0.7
			c0.1,0.3,0.2,0.6,0.2,1.3v1.2C141.1,110,141.1,110.4,141,110.9L141,110.9z"/>
		<path d="M149.6,106.8c0.8,0.3,1.9,0.8,1.9,2.1c0,1.2-0.9,2.2-2.8,2.2c-1.2,0-1.9-0.3-2.2-0.5l0-0.1c0-0.4,0.1-0.6,0.1-0.9l0.1,0
			c0.3,0.2,0.9,0.6,1.9,0.6c1.1,0,1.6-0.5,1.6-1.2c0-0.7-0.6-1-1.3-1.3l-0.5-0.2c-0.8-0.3-1.8-0.8-1.8-2c0-0.4,0.1-0.8,0.3-1.1
			c0.5-0.7,1.4-0.9,2.3-0.9c0.9,0,1.4,0.2,2,0.3l0.1,0.1c0,0.4-0.1,0.5-0.1,0.9l-0.1,0c-0.5-0.2-1-0.5-1.8-0.5c-0.9,0-1.5,0.4-1.5,1
			c0,0.5,0.3,0.7,0.6,0.8c0.1,0.1,0.2,0.1,0.8,0.4L149.6,106.8z"/>
		<path d="M159.5,110.9c-0.7,0-0.8,0-1.5,0l-0.1-0.1c-0.1-0.6-0.3-1.5-0.5-2.2l-0.6-2.5l-0.6,2.5c-0.3,1.2-0.4,1.6-0.5,2.1l-0.1,0.1
			c-0.8,0-0.8,0-1.5,0l-0.1-0.1c-0.5-1.8-1.3-4.5-1.5-5.2l0-0.1c0.5,0,0.7,0,1.2-0.1l0.1,0.1c0.1,0.3,0.1,0.7,0.6,2.6l0.5,2.1
			l0.7-2.8c0.3-1.4,0.4-1.5,0.4-1.8l0.1-0.1c0.6,0,0.8,0,1.6,0l0.1,0.1c0.2,0.7,0.4,1.7,0.6,2.5l0.6,2.2l0.6-2.4
			c0.1-0.4,0.2-0.7,0.3-1.1c0.2-0.7,0.2-0.8,0.3-1.2l0.1-0.1c0.2,0,0.4,0,0.5,0c0.2,0,0.3,0,0.5,0l0.1,0.1
			C161,106.2,160,109,159.5,110.9L159.5,110.9z"/>
		<path d="M163.6,110.9c-0.6,0-0.7,0-1.2,0l-0.1-0.1c0-0.5,0.1-1,0.1-2.2c0-2,0-2.3-0.1-2.9l0.1-0.1c0.5-0.1,0.6-0.1,1.2-0.2
			l0.1,0.1c0,0.5-0.1,1.1-0.1,2.4C163.6,109.9,163.6,110.1,163.6,110.9L163.6,110.9z M163.6,104c-0.6,0-0.7,0-1.2,0.1l-0.1-0.1
			c0-0.1,0-0.3,0-0.4c0-0.2,0-0.4,0-0.6l0.1-0.1c0.6,0,0.7-0.1,1.2-0.1l0.1,0.1C163.7,103.4,163.7,103.5,163.6,104L163.6,104z"/>
		<path d="M168.1,110.1c0,0.3,0,0.4,0,0.7l-0.1,0.1c-0.2,0.1-0.4,0.1-0.8,0.1c-0.3,0-1,0-1.3-0.5c-0.2-0.3-0.2-0.5-0.2-1.8l0-2.3
			c-0.4,0-0.4,0-0.8,0l0-0.1c0-0.3,0-0.4,0-0.7l0.1-0.1c0.2,0,0.4,0,0.7,0c0-0.2,0-0.4,0-0.7c0-0.2,0-0.4,0-0.6l0.1-0.1
			c0.5-0.1,0.6-0.1,1.1-0.3l0.1,0.1c0,0.7,0,0.8,0,1.6c0.5,0,0.6,0,1.2,0l0.1,0.1c0,0.3,0,0.4,0,0.7l-0.1,0.1c-0.5,0-0.6,0-1.2,0
			l0,1.9c0,0.1,0,0.7,0,0.9c0,0.8,0.1,1,0.6,1C167.8,110.1,167.9,110,168.1,110.1L168.1,110.1z"/>
		<path d="M173.2,110.9c-0.3,0-1.8,0-2.1,0c-1.3,0-1.4,0-2.1,0l0-0.1c0.8-1.3,2.2-3.5,2.7-4.5c-1.4,0-1.7,0-2.4,0l-0.1-0.1
			c0-0.3,0.1-0.4,0.1-0.7l0.1-0.1c1.8,0,2,0,3.9,0l0.1,0.1c-1,1.5-2.4,4-2.7,4.5c0.9,0,1.9,0,2.6-0.1l0.1,0.1
			C173.3,110.4,173.3,110.5,173.2,110.9L173.2,110.9z"/>
		<path d="M179.4,109.6c-0.1,0.4-0.1,0.5-0.1,0.9l-0.1,0.1c-0.2,0.1-0.8,0.4-1.8,0.4c-1.8,0-2.9-1-2.9-2.8c0-1.9,1.2-2.9,2.7-2.9
			c0.9,0,1.5,0.3,1.8,0.7c0.6,0.7,0.6,1.7,0.6,2.2l-0.1,0.1c-1.7,0-2,0-3.8,0c0,0.4,0,0.9,0.4,1.3c0.4,0.5,1.1,0.6,1.4,0.6
			c0.3,0,0.6-0.1,1-0.2C178.9,109.9,179.2,109.7,179.4,109.6L179.4,109.6z M178.4,106.9c-0.2-0.6-0.7-0.8-1.2-0.8
			c-0.6,0-1.3,0.4-1.4,1.4c1.3,0,1.7,0,2.7,0C178.5,107.4,178.5,107.2,178.4,106.9z"/>
		<path d="M183.8,106.6c-0.1,0-0.3-0.1-0.4-0.1c-0.2,0-0.4,0.1-0.5,0.1c-0.4,0.3-0.4,0.8-0.4,1.8c0,1.2,0,1.8,0.1,2.3l-0.1,0.1
			c-0.5,0-0.6,0-1.2,0l-0.1-0.1c0-0.8,0-1.5,0-2.5c0-1.6,0-2.1-0.1-2.7l0.1-0.1c0.4-0.1,0.7-0.1,1.1-0.2l0.1,0.1l-0.1,0.9
			c0.1-0.3,0.4-1,1.3-1c0.1,0,0.2,0,0.3,0l0,0.1C184,106,184,106.1,183.8,106.6L183.8,106.6z"/>
		<path d="M186.6,110.9c-0.5,0-0.6,0-1.1,0l-0.1-0.1c0-0.7,0.1-1.7,0.1-3.6c0-1.4,0-2.9-0.1-4.3l0.1-0.1c0.5-0.1,0.6-0.1,1.2-0.2
			l0.1,0.1c-0.1,1.4-0.1,2.7-0.1,4.1C186.6,109,186.6,109.8,186.6,110.9L186.6,110.9z"/>
		<path d="M192.8,108.8c0,1.3,0,1.4,0.1,2.1l-0.1,0.1c-0.5,0-0.6,0-1.1,0l0-0.1l0-0.4c-0.2,0.2-0.7,0.5-1.5,0.5
			c-1.1,0-1.9-0.7-1.9-1.7c0-1.4,1.2-1.8,3.2-2l0.2,0c0-0.3,0-0.5-0.1-0.6c-0.1-0.2-0.4-0.4-0.9-0.4c-0.7,0-1.2,0.2-1.7,0.4
			l-0.1-0.1c0-0.5,0-0.5,0-0.8l0.1-0.1c0.6-0.2,1.2-0.3,1.9-0.3c0.8,0,1.6,0.3,1.8,1.1c0.1,0.3,0.1,0.9,0.1,1.3V108.8z M191.6,108
			c-1.1,0.2-2.1,0.3-2.1,1.2c0,0.1,0,0.9,1,0.9c0.7,0,1.1-0.4,1.2-0.5L191.6,108L191.6,108z"/>
		<path d="M199.7,110.9c-0.5,0-0.6,0-1.1,0l-0.1-0.1c0-0.1,0-0.2,0-0.3c0-0.5,0-1,0-1.5c0-1.6,0-1.7-0.1-1.9c-0.2-0.8-0.8-0.8-1-0.8
			c-0.7,0-1.2,0.4-1.5,0.6c0,1.8,0,2.7,0.1,3.9l-0.1,0.1c-0.5,0-0.6,0-1.1,0l-0.1-0.1c0-0.6,0-1.1,0-1.9c0-1.6-0.1-2.5-0.1-3.2
			l0.1-0.1c0.5-0.1,0.6-0.1,1.2-0.2l0.1,0.1l0,0.5c0.3-0.2,1-0.6,1.9-0.6c0.3,0,0.6,0,0.9,0.2c0.3,0.2,0.5,0.4,0.6,0.7
			c0.1,0.3,0.2,0.6,0.2,1.3v1.2C199.7,110,199.7,110.4,199.7,110.9L199.7,110.9z"/>
		<path d="M205.4,102.9c0.6-0.1,0.7-0.1,1.2-0.2l0.1,0.1c-0.1,1.4-0.1,4-0.1,5c0,1.6,0,2.4,0.1,3.1l-0.1,0.1c-0.5,0-0.6,0-1.1,0
			l-0.1-0.1l0-0.4c-0.3,0.2-0.7,0.5-1.5,0.5c-1.5,0-2.5-1.1-2.5-2.6c0-1.1,0.5-1.8,1-2.2c0.8-0.7,1.8-0.7,2.4-0.7c0.2,0,0.3,0,0.6,0
			C205.5,104.2,205.4,103.5,205.4,102.9L205.4,102.9z M205.4,106.3c-0.2,0-0.3,0-0.5,0c-0.3,0-1.1,0-1.6,0.5
			c-0.2,0.2-0.6,0.7-0.6,1.6c0,0.6,0.2,1,0.4,1.3c0.2,0.2,0.6,0.5,1.1,0.5c0.7,0,1.1-0.3,1.2-0.5C205.4,108.3,205.4,108,205.4,106.3
			z"/>
	</g>
</g>
</svg>
