<svg xmlns="http://www.w3.org/2000/svg" viewBox="0 0 83.66 63.12">
    <defs>
        <style>.cls-1{fill:#fff;}</style>
    </defs>
    <g id="Layer_2" data-name="Layer 2">
        <g id="Layer_1-2" data-name="Layer 1">
            <path class="cls-1" d="M62,47.82H47.37V52.3H57.55v.24c-1.37,3.9-4.51,6.16-9.47,6.16A10.08,10.08,0,0,1,38,48.3,10.47,10.47,0,0,1,48.5,37.51a10,10,0,0,1,9.68,6.25l4.2-1.94A14.51,14.51,0,0,0,48.5,33.09,15,15,0,0,0,33.42,48.31,14.58,14.58,0,0,0,48.09,63.12,12.56,12.56,0,0,0,58,58.69l.42,3.37H62V47.82Z" />
            <polygon class="cls-1" points="62.03 23.53 38.84 23.53 38.84 16.13 59.36 16.13 59.36 11.84 38.84 11.84 38.84 4.43 62.03 4.43 62.03 0.03 34.12 0.03 34.12 27.94 62.03 27.94 62.03 23.53" />
            <polygon class="cls-1" points="23.15 11.56 4.72 11.56 4.72 0.02 0 0.02 0 27.94 4.72 27.94 4.72 16.01 23.15 16.01 23.15 27.94 27.92 27.94 27.92 0.02 23.15 0.02 23.15 11.56" />
            <polygon class="cls-1" points="16.32 57.61 16.32 38.59 27.92 38.59 27.92 34.14 0 34.14 0 38.59 11.59 38.59 11.59 57.61 0 57.61 0 62.06 27.92 62.06 27.92 57.61 16.32 57.61" />
            <path class="cls-1" d="M73.74,0h1.79L72.76,7.59H71L68.24,0H70.1l1.83,5.34Z" />
            <path class="cls-1" d="M77.1,7.59V0h2.75a3.56,3.56,0,0,1,3.81,3.8,3.56,3.56,0,0,1-3.82,3.79ZM79.78,6A2,2,0,0,0,81.9,3.8a2,2,0,0,0-2.12-2.2h-1V6Z" />
        </g>
    </g>
</svg>