<?xml version="1.0" encoding="utf-8"?>
<!-- Generator: Adobe Illustrator 24.3.0, SVG Export Plug-In . SVG Version: 6.00 Build 0)  -->
<svg version="1.1" id="Layer_1" xmlns="http://www.w3.org/2000/svg" xmlns:xlink="http://www.w3.org/1999/xlink" x="0px" y="0px"
	 viewBox="0 0 227.2 60.1" style="enable-background:new 0 0 227.2 60.1;" xml:space="preserve">
<style type="text/css">
	.st0{fill:#D60008;}
	.st1{fill:#0086D1;}
	.st2{fill:#00B513;}
	.st3{fill:#E3AF00;}
	.st4{fill:#FFFFFF;}
</style>
<path class="st0" d="M32.8,6.5C19.7,6.5,9.1,17.2,9.1,30.3c0,3.9,0.9,7.6,2.6,10.8L6.4,56.9l16-5.4c3.2,1.6,6.7,2.5,10.5,2.5
	C46,54,56.6,43.4,56.6,30.3S46,6.5,32.8,6.5z"/>
<path class="st1" d="M118.9,30.4c0,13.1,10.6,23.7,23.7,23.7c3.9,0,7.6-0.9,10.8-2.6l15.8,5.4l-5.4-16c1.6-3.2,2.5-6.7,2.5-10.5
	c0-13.1-10.6-23.7-23.7-23.7S118.9,17.2,118.9,30.4z"/>
<path class="st2" d="M197.1,54.9c13.1,0,23.7-10.6,23.7-23.7c0-3.9-0.9-7.6-2.6-10.8l5.4-15.8l-16,5.4c-3.2-1.6-6.7-2.5-10.5-2.5
	c-13.1,0-23.7,10.6-23.7,23.7S184,54.9,197.1,54.9z"/>
<path class="st3" d="M112,30.1C112,17,101.4,6.4,88.3,6.4c-3.9,0-7.6,0.9-10.8,2.6L61.6,3.6l5.4,16c-1.6,3.2-2.5,6.7-2.5,10.5
	c0,13.1,10.6,23.7,23.7,23.7S112,43.2,112,30.1z"/>
<g>
	<path class="st4" d="M40.7,44.2c-2.9-0.8-5.3-1.7-8-2.8c-0.5-0.2-0.9-0.3-1.4-0.3c-4.6-0.3-8.9-3.7-8.9-10.3
		c0-6.1,3.9-10.7,9.9-10.7c6.2,0,9.6,4.7,9.6,10.3c0,4.6-2.1,7.9-4.8,9.1v0.1c1.6,0.5,3.3,0.8,4.9,1.2L40.7,44.2z M37,30.5
		c0-3.7-1.7-6.8-4.9-6.8c-3.1,0-5,3.1-4.9,6.9c0,3.9,1.8,6.8,4.9,6.8C35.3,37.4,37,34.4,37,30.5z"/>
</g>
<g>
	<path class="st4" d="M84.2,20.4V32c0,3.5,1.3,5.3,3.7,5.3c2.4,0,3.7-1.7,3.7-5.3V20.4h4.6v11.4c0,6.3-3.2,9.2-8.5,9.2
		c-5.1,0-8.1-2.8-8.1-9.3V20.4H84.2z"/>
</g>
<g>
	<path class="st4" d="M144.3,20.4v20.3h-4.6V20.4H144.3z"/>
</g>
<g>
	<path class="st4" d="M189.2,38.2l9.7-13.9v-0.1h-8.8v-3.8h14.8V23l-9.5,13.8v0.1h9.6v3.8h-15.8V38.2z"/>
</g>
</svg>
