<?xml version="1.0" encoding="utf-8"?>
<!-- Generator: Adobe Illustrator 24.3.0, SVG Export Plug-In . SVG Version: 6.00 Build 0)  -->
<svg version="1.1" id="Layer_1" xmlns="http://www.w3.org/2000/svg" xmlns:xlink="http://www.w3.org/1999/xlink" x="0px" y="0px"
	 viewBox="0 0 355.4 382.7" style="enable-background:new 0 0 355.4 382.7;" xml:space="preserve">
<style type="text/css">
	.st0{fill:#E3AF00;}
	.st1{fill:#D60008;}
	.st2{fill:#2E2E2E;}
	.st3{fill:#FADC81;}
	.st4{fill:#513732;}
	.st5{fill:#485B64;}
</style>
<path class="st0" d="M151.4,161.4c0.1,4.7,0.3,9.3,0.4,14c-7.5,0.5-15,1.2-22.5,1.6c-1.8,0.1-2.8,0.6-2.6,2.5
	c-0.4,1-1.1,1.9-1.2,2.9c-0.8,6.5-1.7,13-2.2,19.6c-0.4,5.3-0.2,10.5-0.3,15.8c-3.7,2.2-7.5,4.3-11.1,6.6c-6.1,3.9-12.1,7.9-13,16
	c-5.4,0.1-10.7,0.2-16.1,0.3c-0.6-6.7-4.8-11-10-14.3c-4.8-3-9.7-5.9-14.5-8.8c-1-11.8-1.9-23.6-2.9-35.4c0-0.5-0.7-0.9-1.1-1.3
	c0.2-1.1,0.3-2.3,0.6-4c-8.8-0.4-17.2-0.8-25.5-1.2c0.1-5.5,0.1-10.9,0.3-16.4c0.1-3.6,0.5-7.2,0.8-10.8c0.4-4.5,1.9-6.2,6.2-7.2
	c10.8-2.4,20.9-1.5,30.3,5.2c4.6,3.3,10,5,15.9,4.5c3.7-0.3,7.5-0.4,11.2,0c8.8,1,16.5-1.9,23.6-6.6c8.8-5.8,18.3-4.8,27.8-2.7
	c3.3,0.7,4.7,3.4,5,6.7c0.3,3.9,0.5,7.7,0.8,11.6C151.3,160.4,151.4,160.9,151.4,161.4z"/>
<path class="st1" d="M202.2,178.3c0.5-7.8,1-15.7,1.6-23.5c0.4-5.1,2.2-7,7.3-7.8c10.2-1.7,19.8-1.1,28.6,5.2
	c5.1,3.7,11,5.3,17.4,4.8c1.6-0.1,3.3-0.1,4.9,0c11.2,0.9,21.4-1.1,30.9-7.6c8-5.4,17.1-3.5,25.8-1.8c2.7,0.5,4.5,2.6,4.7,5.6
	c0.6,9.3,1.2,18.7,1.7,28c-8.5,0.4-17,0.8-25.8,1.3c0.1,1,0.2,1.7,0.3,2.4c-3.1,12.8-3.2,25.9-4.1,38.9c-4.8,2.9-9.5,5.8-14.3,8.7
	c-5.1,3.2-8.7,7.4-9.4,13.6c-5.4,0.2-10.7,0.3-16.1,0.5c-0.4-5.6-3.1-9.9-7.7-12.9c-5.5-3.5-11.2-6.9-16.8-10.3
	c0.1-1.6,0.3-3.2,0.2-4.8c-1-11.1-2.1-22.2-3.2-33.3c0.3-1.7,0.2-2.8-2.1-2.8c-2.5,0-4.9-0.5-7.4-0.5c-5.4-0.2-10.8-0.2-16.3-0.3
	c-0.2-0.4-0.3-0.8-0.5-1.1C202.2,179.7,202.2,179,202.2,178.3z"/>
<path class="st2" d="M82.8,240.8c5.4-0.1,10.7-0.2,16.1-0.3c0.7,7.1,4.9,10.7,11.7,9.6c3.2-0.5,6.3-2.1,9.4-3.2
	c0.2,0.6,0.3,1.6,0.5,1.6c4.9-0.1,4.7,3.4,4.8,6.7c0.3,12.2-3.1,23.7-5.9,35.4c-1.4,5.9-2.5,11.8-3.8,17.7c-2,7-4.4,14-6,21.1
	c-2.1,9.1-3.3,18.4-5.4,27.5c-0.7,3.3-2,7.5-4.4,9.2c-3.9,2.7-8.9,4.5-13.6,4.9c-4.7,0.5-8.6-2.9-10.5-7.2
	c-2.6-5.9-4.6-12.1-6.5-18.2c-1.6-5.2-2.8-10.6-4.1-15.9c-0.3-1.5-0.7-3.1-1-4.6c-3.7-17.3-7.8-34.6-11.1-52
	c-1.7-9.3-0.2-18.3,8.1-24.7c0.3-0.3,0.4-0.9,0.6-1.3c1.7,0.8,3.3,1.7,5.1,2.3C75,252.3,81,249.1,82.8,240.8z M91.2,257.4
	c-0.5-0.2-1-0.4-1.5-0.6c-0.3,0.7-0.7,1.3-1,2c-2.6,5.8-5.2,11.5-7.6,17.4c-0.5,1.3-0.9,3-0.6,4.3c1.8,8.3,3.7,16.5,5.7,24.7
	c0.2,0.9,1.4,1.6,2.1,2.4c0.8-0.9,2.2-1.7,2.4-2.8c1.6-6.9,3-13.8,4.3-20.8c0.7-3.8,2.2-7.8,1.5-11.3
	C95.5,267.5,93,262.5,91.2,257.4z"/>
<path class="st2" d="M256,246.6c5.4-0.2,10.7-0.3,16.1-0.5c1.1,7.6,5.2,10.9,12.8,9.8c2.9-0.4,5.5-2,8.3-3c1.5,1.1,3.8,1.9,4.4,3.4
	c1.1,2.5,1.9,5.6,1.5,8.3c-1.4,9-3.2,18-5.1,26.9c-1.6,7.6-3.5,15.2-5.2,22.8c-0.6,1.4-1.4,2.7-1.7,4.1c-3,13.6-5.8,27.3-8.8,40.9
	c-0.7,3-1.4,6.1-2.5,9c-1.4,3.7-4,6.3-8.2,6.8c-0.7,0.1-1.4,0.4-2.1,0.7c-5.7,2.4-11.1,1.5-14.7-3.5c-2.4-3.3-4.4-7-5.6-10.9
	c-2.7-8.7-4.7-17.6-7-26.3c-0.3-1.3-0.7-2.6-1-3.9c-1.8-7.3-3.9-14.6-5.4-22c-2.1-10.7-3.8-21.5-5.6-32.2
	c-0.9-5.6-0.6-11.3,2.4-16.2c1.7-2.8,4.5-5,6.8-7.5c1.9,0.8,3.8,1.9,5.8,2.4C248.4,257.4,255.4,254.8,256,246.6z M264.2,262.7
	c-1.2,1.1-1.9,1.5-2.2,2.1c-2.5,5.3-5,10.6-7.3,16c-0.7,1.6-1.2,3.7-0.9,5.4c1.7,8.2,3.6,16.4,5.6,24.5c0.3,1.1,1.4,2,2.1,2.9
	c0.8-1.1,2.1-2,2.4-3.2c1.8-8.1,3.5-16.2,5.1-24.4c0.5-2.5,1.3-5.3,0.7-7.7C268.4,273.3,266.3,268.4,264.2,262.7z"/>
<path class="st2" d="M211.7,42.8c0,20.5-16.5,36.9-37,36.8C154.3,79.6,137.9,63,138,42.6C138,22.1,154.4,5.8,175,5.8
	C195.3,5.7,211.8,22.3,211.7,42.8z M174.9,41.4c0-8.7,0-16.9-0.1-25.1c0-0.9-0.8-1.8-1.2-2.7c-0.5,0.9-1.3,1.7-1.3,2.6
	c-0.1,8.1,0,16.2,0,24.3c0,2.5,0.8,3.6,3.5,3.6c7.9-0.1,15.7,0,23.6-0.1c1.1,0,2.1-0.4,3.2-0.7c0-0.6-0.1-1.1-0.1-1.7
	C193.6,41.3,184.5,41.6,174.9,41.4z"/>
<path class="st3" d="M288.9,100.6c-0.2,6.5-0.9,13-0.6,19.4c0.5,9.7-6.7,16.6-14.3,18.7c-5.5,1.5-11.6,1.9-17.4,1.5
	c-6.4-0.4-11.3-4.1-13.6-10.4c-2-5.4-3.3-10.6-1.7-16.7c1.1-4.5-0.7-9.8-1.1-14.7c0.5-2.2,0.8-4.4,1.6-6.5c1.9-5.2,3.6-5.9,8.7-4.3
	c1.1,0.3,2.2,0.3,3.3,0.6c0.9,0.3,2.1,0.7,2.5,1.4c2.6,4.3,6.5,6.4,11.3,7.1C274.6,97.9,281.7,99.3,288.9,100.6z"/>
<path class="st3" d="M115,94.7c0.1,6.9,0.7,13.8,0.3,20.7c-0.3,6.4-3.7,11.3-9.3,14.8c-7.7,4.8-16.1,4.8-24.6,4
	c-6.6-0.7-9.9-5.7-12.2-11.3c-2.1-5-2.8-10-1.2-15.6c1.3-4.5,0.7-9.6-1.8-13.9c1-3.1,1.8-6.2,2.9-9.2c1.3-3.1,3.5-3.8,6.9-2.9
	c3.9,1,7.2,2.2,9.6,5.7c1.1,1.6,3.4,2.5,5.4,3.1c3.2,1,6.5,1.6,9.7,2.2C105.5,93.2,110.2,93.9,115,94.7z"/>
<path class="st3" d="M235.6,253.1c-11-10.2-22-20.3-32.9-30.6c-3.9-3.7-7-7.9-6.3-13.8c2.2-8.2,4.5-16.4,6.6-24.7
	c0.2-0.8-0.2-1.7-0.3-2.5c5.4,0.1,10.8,0.2,16.3,0.3c2.5,0.1,5,0.6,7.4,0.5c2.3,0,2.4,1.1,2.1,2.8c-3,8.6-6.2,17.1-8.8,25.7
	c-0.5,1.6,0.7,4.4,2,5.7c2.9,2.6,6.5,4.6,9.8,6.8c5.6,3.4,11.2,6.7,16.8,10.3c4.6,3,7.3,7.3,7.7,12.9c-0.6,8.2-7.6,10.8-14.6,9
	C239.4,255,237.6,253.9,235.6,253.1z"/>
<path class="st3" d="M331.6,213.2c-2.1,3.2-3.7,6.8-6.4,9.4c-10.5,10.2-21.3,20.2-32,30.2c-2.8,1-5.4,2.6-8.3,3
	c-7.6,1.2-11.7-2.2-12.8-9.8c0.8-6.2,4.3-10.4,9.4-13.6c4.7-2.9,9.5-5.8,14.3-8.7c3.4-2.2,6.8-4.4,10.3-6.7c2.9-1.9,3.5-4.4,2.3-7.7
	c-3-8.1-5.6-16.4-8.4-24.6c-0.1-0.7-0.2-1.4-0.3-2.4c8.7-0.4,17.3-0.9,25.8-1.3c0.6,3,1,6,1.9,8.9
	C329.4,197.6,331.7,205.2,331.6,213.2z"/>
<path class="st3" d="M158.9,207.2c-9.8,15.4-24.1,26.5-37.5,38.4c-0.5,0.4-0.9,0.8-1.3,1.3c-3.1,1.1-6.2,2.7-9.4,3.2
	c-6.8,1.1-10.9-2.6-11.7-9.6c0.9-8.1,7-12.1,13-16c3.6-2.3,7.4-4.4,11.1-6.6c3-2,6-3.9,8.9-6c4.3-3.1,4.5-4.3,2.3-9.4
	c-1.4-4.1-2.8-8.1-4.2-12.2c-1.1-3.6-2.2-7.2-3.3-10.8c-0.3-2,0.8-2.4,2.6-2.5c7.5-0.4,15-1.1,22.5-1.6c1.2,4.8,2.6,9.6,3.7,14.4
	C156.7,195.6,157.8,201.4,158.9,207.2z"/>
<path class="st3" d="M61.7,246.9c-11.3-10.6-22.6-21.3-33.9-31.9c-3.6-3.4-4.4-7.8-5.3-12.3c2.3-9,4.5-18,6.8-27
	c8.3,0.4,16.7,0.8,25.5,1.2c-0.3,1.8-0.4,2.9-0.6,4c-2.6,7.9-5.1,15.8-7.8,23.7c-0.9,2.6-0.4,4.7,1.8,6.2c3.3,2.4,6.7,4.6,10.1,6.8
	c4.9,2.9,9.8,5.8,14.5,8.8c5.3,3.4,9.4,7.6,10,14.3c-1.9,8.3-7.9,11.5-16,8.5C65.1,248.6,63.4,247.7,61.7,246.9z"/>
<path class="st4" d="M288.9,100.6c-7.2-1.3-14.3-2.7-21.5-3.8c-4.8-0.8-8.7-2.9-11.3-7.1c-0.4-0.7-1.6-1.1-2.5-1.4
	c-1-0.3-2.2-0.3-3.3-0.6c-5.1-1.6-6.8-0.8-8.7,4.3c-0.8,2.1-1.1,4.3-1.6,6.5c-3.1-4.7-3.4-10-1.7-15c1-3,3.2-6.1,5.6-8.2
	c13.5-11.7,38.1-7.3,46.8,8.2c1,1.7,1.8,3.6,2.3,5.5c0.9,3.7,3,6.2,7,7.8c-0.9,0.4-1.4,0.6-2.9,1.3c1.4,0.5,2.5,0.9,3.5,1.3
	c-0.2,0.4-0.5,0.8-0.7,1.2C296.2,100.6,292.5,100.6,288.9,100.6z"/>
<path class="st4" d="M115,94.7c-4.7-0.8-9.5-1.5-14.2-2.4c-3.3-0.6-6.6-1.2-9.7-2.2c-2-0.6-4.3-1.6-5.4-3.1
	c-2.4-3.6-5.8-4.7-9.6-5.7c-3.4-0.9-5.7-0.2-6.9,2.9c-1.2,3-2,6.1-2.9,9.2c-0.7-3.4-1.7-6.8-1.9-10.3c-0.4-5.9,2.1-10.7,6.8-14.2
	c14.6-10.8,42.6-7.7,49.1,15.1c0.8,2.9,3.8,5.2,5.6,7.6c0.2-0.1-0.4,0.1-1.1,0.3c0.7,0.8,1.3,1.5,2.6,2.8
	C122.6,94.7,118.8,94.7,115,94.7z"/>
<path class="st3" d="M64.1,329.7c0-1.6,0-3.2,0-4.7c0.3,1.5,0.7,3.1,1,4.6C64.8,329.6,64.4,329.7,64.1,329.7z"/>
<path class="st3" d="M237.3,334.9c0-1.3,0-2.6,0-3.9c0.3,1.3,0.7,2.6,1,3.9C238,334.9,237.6,334.9,237.3,334.9z"/>
<path class="st3" d="M151.4,161.4c0-0.5-0.1-1-0.1-1.5C151.3,160.4,151.4,160.9,151.4,161.4z"/>
<path class="st3" d="M202.2,178.3c0,0.7,0,1.4,0,2.1C202.2,179.7,202.2,179,202.2,178.3z"/>
<g>
	<path class="st5" d="M158.9,207.2c-9.8,15.4-24.1,26.5-37.5,38.4c-0.5,0.4-0.9,0.8-1.3,1.3c0.2,0.6,0.3,1.6,0.5,1.6
		c4.9-0.1,4.7,3.4,4.8,6.7c0.3,12.2-3.1,23.7-5.9,35.4c-1.4,5.9-2.5,11.8-3.8,17.7c2.1-0.1,2.6,0.9,2.4,3c-0.8,8.5-1.5,16.9-2,25.4
		c-0.6,10.8,0,11.3,10.9,12.4c11.4,1.1,17.3-4.4,16.6-15.8c-1.6-26.7-1.4-53.5,1.3-80.1c0.7-7,2.2-13.8,6.3-19.8
		c5.5-7.9,14.8-10.7,22.5-6.8c1.8-3.5,1.6-7,0-10.4C170.8,210,165.6,207.3,158.9,207.2z"/>
	<path class="st5" d="M347.8,224.6c-1.4-7.4-7.4-11.4-16.2-11.4c-2.1,3.2-3.7,6.8-6.4,9.4c-10.5,10.2-21.3,20.2-32,30.2
		c1.5,1.1,3.8,1.9,4.4,3.4c1.1,2.5,1.9,5.6,1.5,8.3c-1.4,9-3.2,18-5.1,26.9c-1.6,7.6-3.5,15.2-5.2,22.8c0.9,0.2,1.8,0.3,2.5,0.5
		c-0.7,9.5-1.5,18.5-2.1,27.6c-0.7,10.5,0.5,11.8,11.1,12.7c0.1,0,0.2,0,0.4,0c11.4,0.8,17-5,16.2-16.3c-2-26.6-1.6-53.2,1.4-79.6
		c0.7-6.1,2.4-12.3,5.1-17.8c4.6-9.4,14.2-12.6,24.4-8.7C347.8,229.7,348.2,227.1,347.8,224.6z"/>
	<path class="st5" d="M64.2,334.2c0-1.5-0.1-3-0.1-4.5c0-1.6,0-3.2,0-4.7c-3.7-17.3-7.8-34.6-11.1-52c-1.7-9.3-0.2-18.3,8.1-24.7
		c0.3-0.3,0.4-0.9,0.6-1.3c-11.3-10.6-22.6-21.3-33.9-31.9c-3.6-3.4-4.4-7.8-5.3-12.3c-1.1,0-2.3,0-3.4,0.1
		c-10.2,0.8-16.5,10.1-12.8,19c8-3.1,15.4-1.7,20.7,5.1c3,3.9,5.7,8.8,6.4,13.6c1.9,13.5,3.3,27,3.6,40.6c0.4,16.1-0.4,32.2-1,48.3
		c-0.3,9.4,4.6,15,13.9,15c2.1,0,4.3-0.2,6.3-0.7C65.5,341.4,64.1,342.9,64.2,334.2z"/>
	<path class="st5" d="M237.3,331c-1.8-7.3-3.9-14.6-5.4-22c-2.1-10.7-3.8-21.5-5.6-32.2c-0.9-5.6-0.6-11.3,2.4-16.2
		c1.7-2.8,4.5-5,6.8-7.5c-11-10.2-22-20.3-32.9-30.6c-3.9-3.7-7-7.9-6.3-13.8c-6.8-0.9-12.4,1.2-16,7.3c-2.2,3.8-3,7.8-0.9,11.4
		c2.5-0.6,4.6-1.4,6.7-1.4c7.2,0,12.9,3.4,16.3,9.5c2.4,4.4,4.5,9.4,5.1,14.3c1.5,14,2.7,28.1,3,42.2c0.3,14.6-0.5,29.2-0.9,43.8
		c-0.2,8.7,3.7,14,12.1,14.3c4.6,0.2,9.3-1.3,13.9-2.3c0.7-0.2,1.6-1.8,1.6-2.9c0.2-3.4,0-6.7-0.1-10.1
		C237.3,333.6,237.3,332.3,237.3,331z"/>
	<path class="st5" d="M48.1,210.7c3.3,2.4,6.7,4.6,10.1,6.8c-1-11.8-1.9-23.6-2.9-35.4c0-0.5-0.7-0.9-1.1-1.3
		c-2.6,7.9-5.1,15.8-7.8,23.7C45.5,207.1,46,209.2,48.1,210.7z"/>
	<path class="st5" d="M134.3,202.5c-1.4-4.1-2.8-8.1-4.2-12.2c-1.1-3.6-2.2-7.2-3.3-10.8c-0.4,1-1.1,1.9-1.2,2.9
		c-0.8,6.5-1.7,13-2.2,19.6c-0.4,5.3-0.2,10.5-0.3,15.8c3-2,6-3.9,8.9-6C136.2,208.8,136.5,207.6,134.3,202.5z"/>
	<path class="st5" d="M308.3,209.4c-3-8.1-5.6-16.4-8.4-24.6c-3.1,12.8-3.2,25.9-4.1,38.9c3.4-2.2,6.8-4.4,10.3-6.7
		C308.9,215.2,309.5,212.8,308.3,209.4z"/>
	<path class="st5" d="M231.5,223.4c0.1-1.6,0.3-3.2,0.2-4.8c-1-11.1-2.1-22.2-3.2-33.3c-3,8.6-6.2,17.1-8.8,25.7
		c-0.5,1.6,0.7,4.4,2,5.7C224.7,219.2,228.2,221.2,231.5,223.4z"/>
	<path class="st5" d="M91.2,257.4c-0.5-0.2-1-0.4-1.5-0.6c-0.3,0.7-0.7,1.3-1,2c-2.6,5.8-5.2,11.5-7.6,17.4c-0.5,1.3-0.9,3-0.6,4.3
		c1.8,8.3,3.7,16.5,5.7,24.7c0.2,0.9,1.4,1.6,2.1,2.4c0.8-0.9,2.2-1.7,2.4-2.8c1.6-6.9,3-13.8,4.3-20.8c0.7-3.8,2.2-7.8,1.5-11.3
		C95.5,267.5,93,262.5,91.2,257.4z"/>
	<path class="st5" d="M264.2,262.7c-1.2,1.1-1.9,1.5-2.2,2.1c-2.5,5.3-5,10.6-7.3,16c-0.7,1.6-1.2,3.7-0.9,5.4
		c1.7,8.2,3.6,16.4,5.6,24.5c0.3,1.1,1.4,2,2.1,2.9c0.8-1.1,2.1-2,2.4-3.2c1.8-8.1,3.5-16.2,5.1-24.4c0.5-2.5,1.3-5.3,0.7-7.7
		C268.4,273.3,266.3,268.4,264.2,262.7z"/>
</g>
</svg>
